<svg width="26" height="26" viewBox="0 0 26 26" fill="none" xmlns="http://www.w3.org/2000/svg">
<path d="M10.2917 22.75H5.41667V19.7012C5.41667 17.9502 5.41667 17.0747 5.7709 16.412C6.0506 15.8887 6.47919 15.4601 7.00248 15.1804C7.66521 14.8262 8.54069 14.8262 10.2917 14.8262V14.7333C10.2917 13.4156 10.2917 12.7567 10.4454 12.2183C10.825 10.8891 11.8641 9.85001 13.1933 9.47042C13.7317 9.31667 14.3906 9.31667 15.7083 9.31667V5.6875C15.7083 4.34131 16.7996 3.25 18.1458 3.25C19.492 3.25 20.5833 4.34131 20.5833 5.6875V22.75H15.7083H10.2917Z" fill="white"/>
<path d="M22.75 22.75H20.5833M3.25 22.75H5.41667M15.7083 22.75H10.2917M15.7083 22.75V9.31667M15.7083 22.75H20.5833M10.2917 22.75H5.41667M10.2917 22.75V14.8262M5.41667 22.75V19.7012C5.41667 17.9502 5.41667 17.0747 5.7709 16.412C6.0506 15.8887 6.47919 15.4601 7.00248 15.1804C7.66521 14.8262 8.54069 14.8262 10.2917 14.8262V14.8262M10.2917 14.8262V14.7333C10.2917 13.4156 10.2917 12.7567 10.4454 12.2183C10.825 10.8891 11.8641 9.85001 13.1933 9.47042C13.7317 9.31667 14.3906 9.31667 15.7083 9.31667V9.31667M15.7083 9.31667V5.6875C15.7083 4.34131 16.7996 3.25 18.1458 3.25V3.25C19.492 3.25 20.5833 4.34131 20.5833 5.6875V22.75" stroke="white" stroke-width="1.5" stroke-linecap="round"/>
</svg>
