<svg width="127" height="33" viewBox="0 0 127 33" fill="none" xmlns="http://www.w3.org/2000/svg">
<path d="M20.1317 15.3341C20.098 11.6913 23.1963 9.9191 23.3379 9.83659C21.5833 7.34664 18.8636 7.00644 17.9079 6.97931C15.6237 6.74535 13.408 8.30962 12.2444 8.30962C11.0576 8.30962 9.2658 7.00191 7.33462 7.04034C4.84953 7.07764 2.52469 8.47802 1.24963 10.6526C-1.38179 15.0866 0.580741 21.6025 3.10183 25.1865C4.36296 26.9418 5.8366 28.9017 7.76545 28.8327C9.65249 28.757 10.3574 27.6618 12.6346 27.6618C14.8909 27.6618 15.5528 28.8327 17.52 28.7887C19.5453 28.757 20.8203 27.0255 22.0373 25.2544C23.4947 23.2425 24.08 21.2612 24.1032 21.1595C24.0556 21.1436 20.17 19.7003 20.1317 15.3341Z" fill="white"/>
<path d="M16.4157 4.6216C17.4306 3.38624 18.125 1.70555 17.9323 0C16.4633 0.0632941 14.6262 0.988971 13.5683 2.19721C12.6323 3.26191 11.7962 5.00702 12.0122 6.64815C13.6623 6.76795 15.3566 5.83775 16.4157 4.6216Z" fill="white"/>
<path d="M42.105 4.28593C42.105 5.61624 41.6951 6.61764 40.8764 7.29014C40.1181 7.91065 39.0405 8.22147 37.6446 8.22147C36.9525 8.22147 36.3603 8.19208 35.8644 8.13331V0.864653C36.5113 0.76293 37.208 0.710939 37.9605 0.710939C39.2902 0.710939 40.2923 0.992371 40.9682 1.55524C41.7253 2.19157 42.105 3.10142 42.105 4.28593ZM40.8219 4.31871C40.8219 3.45632 40.5873 2.79512 40.1181 2.33398C39.649 1.87397 38.9638 1.6434 38.0615 1.6434C37.6783 1.6434 37.352 1.66826 37.0814 1.72025V7.24606C37.2312 7.26867 37.5053 7.27884 37.9036 7.27884C38.8349 7.27884 39.5538 7.02679 40.0601 6.5227C40.5664 6.01861 40.8219 5.28394 40.8219 4.31871Z" fill="white"/>
<path d="M48.9089 5.44782C48.9089 6.26726 48.6685 6.93863 48.1877 7.46533C47.6837 8.00672 47.016 8.27685 46.1822 8.27685C45.3786 8.27685 44.7388 8.01802 44.2615 7.4981C43.7854 6.97932 43.5473 6.3249 43.5473 5.53598C43.5473 4.7109 43.7923 4.03388 44.2847 3.50831C44.7771 2.98274 45.439 2.7194 46.2728 2.7194C47.0764 2.7194 47.7221 2.97822 48.2109 3.49701C48.6754 4.0011 48.9089 4.65213 48.9089 5.44782ZM47.6466 5.48625C47.6466 4.99459 47.5374 4.57301 47.3203 4.2215C47.0648 3.79653 46.7013 3.58404 46.2287 3.58404C45.7398 3.58404 45.3682 3.79653 45.1127 4.2215C44.8944 4.57301 44.7864 5.00138 44.7864 5.50773C44.7864 5.99939 44.8955 6.42097 45.1127 6.77248C45.3763 7.19746 45.7433 7.40994 46.2171 7.40994C46.6816 7.40994 47.0462 7.19407 47.3086 6.76118C47.5339 6.40289 47.6466 5.97791 47.6466 5.48625Z" fill="white"/>
<path d="M58.0317 2.8279L56.3188 8.15591H55.204L54.4945 5.84228C54.3145 5.26472 54.1682 4.69055 54.0544 4.12091H54.0323C53.9267 4.70638 53.7803 5.27942 53.5922 5.84228L52.8386 8.15591H51.711L50.1003 2.8279H51.351L51.9699 5.36079C52.1197 5.95983 52.2428 6.53061 52.3415 7.07087H52.3636C52.4542 6.62555 52.604 6.05816 52.8153 5.3721L53.5922 2.82903H54.5839L55.3283 5.31784C55.5083 5.92479 55.6546 6.50913 55.7672 7.072H55.8009C55.8834 6.52382 56.0076 5.93948 56.1725 5.31784L56.8368 2.82903H58.0317V2.8279Z" fill="white"/>
<path d="M64.3408 8.15592H63.1238V5.10424C63.1238 4.16387 62.7569 3.69368 62.0206 3.69368C61.6595 3.69368 61.368 3.82253 61.1416 4.08136C60.9174 4.34019 60.8036 4.64535 60.8036 4.9946V8.15479H59.5866V4.35036C59.5866 3.88243 59.5715 3.37495 59.5425 2.82565H60.612L60.6689 3.65864H60.7026C60.8443 3.39982 61.0556 3.1862 61.3332 3.01553C61.663 2.8166 62.0322 2.71601 62.4364 2.71601C62.9473 2.71601 63.3723 2.87651 63.7103 3.19863C64.1306 3.59309 64.3408 4.18195 64.3408 4.96409V8.15592Z" fill="white"/>
<path d="M67.6969 8.15591H66.481V0.383159H67.6969V8.15591Z" fill="white"/>
<path d="M74.8618 5.44782C74.8618 6.26726 74.6215 6.93863 74.1407 7.46533C73.6367 8.00672 72.9678 8.27685 72.1352 8.27685C71.3305 8.27685 70.6906 8.01802 70.2145 7.4981C69.7384 6.97932 69.5003 6.3249 69.5003 5.53598C69.5003 4.7109 69.7453 4.03388 70.2377 3.50831C70.7301 2.98274 71.392 2.7194 72.2246 2.7194C73.0294 2.7194 73.6739 2.97822 74.1639 3.49701C74.6284 4.0011 74.8618 4.65213 74.8618 5.44782ZM73.5984 5.48625C73.5984 4.99459 73.4892 4.57301 73.2721 4.2215C73.0178 3.79653 72.6531 3.58404 72.1817 3.58404C71.6916 3.58404 71.32 3.79653 71.0657 4.2215C70.8474 4.57301 70.7394 5.00138 70.7394 5.50773C70.7394 5.99939 70.8485 6.42097 71.0657 6.77248C71.3293 7.19746 71.6962 7.40994 72.17 7.40994C72.6345 7.40994 72.998 7.19407 73.2605 6.76118C73.4869 6.40289 73.5984 5.97791 73.5984 5.48625Z" fill="white"/>
<path d="M80.7517 8.15591H79.659L79.5684 7.54218H79.5347C79.1608 8.03158 78.6278 8.27685 77.9357 8.27685C77.4189 8.27685 77.0009 8.11522 76.6862 7.79423C76.4005 7.50262 76.2577 7.13981 76.2577 6.70919C76.2577 6.05816 76.5364 5.56198 77.0973 5.21838C77.657 4.87479 78.4443 4.70638 79.4581 4.71429V4.61483C79.4581 3.91294 79.0795 3.56256 78.3212 3.56256C77.7812 3.56256 77.3051 3.6948 76.894 3.95702L76.6467 3.17941C77.1553 2.87311 77.7836 2.7194 78.5244 2.7194C79.9551 2.7194 80.6728 3.45406 80.6728 4.92339V6.88551C80.6728 7.41786 80.6995 7.8417 80.7517 8.15591ZM79.4883 6.3249V5.50321C78.1459 5.4806 77.4747 5.83889 77.4747 6.57695C77.4747 6.85499 77.5513 7.06296 77.7081 7.20198C77.8648 7.341 78.0646 7.40994 78.3026 7.40994C78.5697 7.40994 78.8194 7.32743 79.047 7.16355C79.2758 6.99853 79.4163 6.78943 79.4685 6.53287C79.4813 6.47522 79.4883 6.40515 79.4883 6.3249Z" fill="white"/>
<path d="M87.667 8.15591H86.5871L86.5302 7.30031H86.4965C86.1516 7.95133 85.564 8.27684 84.7383 8.27684C84.0787 8.27684 83.5295 8.0248 83.094 7.52071C82.6585 7.01661 82.4414 6.3622 82.4414 5.55859C82.4414 4.6962 82.6771 3.99771 83.1509 3.46423C83.6096 2.96692 84.1716 2.71826 84.8405 2.71826C85.5756 2.71826 86.09 2.95901 86.3827 3.44162H86.4059V0.383159H87.6241V6.72049C87.6241 7.23927 87.638 7.71737 87.667 8.15591ZM86.4059 5.90896V5.02059C86.4059 4.86687 86.3943 4.74254 86.3722 4.6476C86.3037 4.36278 86.1562 4.12317 85.9321 3.92989C85.7057 3.73662 85.4328 3.63942 85.1181 3.63942C84.664 3.63942 84.3087 3.81461 84.0474 4.16612C83.7884 4.51762 83.6572 4.96633 83.6572 5.51451C83.6572 6.0412 83.7815 6.46844 84.0311 6.79734C84.2947 7.14772 84.6501 7.32291 85.0948 7.32291C85.4943 7.32291 85.8137 7.17711 86.0564 6.88437C86.2909 6.61424 86.4059 6.28873 86.4059 5.90896Z" fill="white"/>
<path d="M98.0754 5.44782C98.0754 6.26726 97.835 6.93863 97.3543 7.46533C96.8503 8.00672 96.1837 8.27685 95.3488 8.27685C94.5463 8.27685 93.9065 8.01802 93.428 7.4981C92.9519 6.97932 92.7139 6.3249 92.7139 5.53598C92.7139 4.7109 92.9589 4.03388 93.4513 3.50831C93.9436 2.98274 94.6056 2.7194 95.4405 2.7194C96.2429 2.7194 96.8898 2.97822 97.3775 3.49701C97.842 4.0011 98.0754 4.65213 98.0754 5.44782ZM96.8143 5.48625C96.8143 4.99459 96.7051 4.57301 96.488 4.2215C96.2313 3.79653 95.869 3.58404 95.3952 3.58404C94.9075 3.58404 94.5359 3.79653 94.2792 4.2215C94.0609 4.57301 93.9529 5.00138 93.9529 5.50773C93.9529 5.99939 94.0621 6.42097 94.2792 6.77248C94.5429 7.19746 94.9098 7.40994 95.3836 7.40994C95.8481 7.40994 96.2139 7.19407 96.4763 6.76118C96.7005 6.40289 96.8143 5.97791 96.8143 5.48625Z" fill="white"/>
<path d="M104.619 8.15592H103.403V5.10424C103.403 4.16387 103.036 3.69368 102.299 3.69368C101.938 3.69368 101.646 3.82253 101.421 4.08136C101.196 4.34019 101.083 4.64535 101.083 4.9946V8.15479H99.8649V4.35036C99.8649 3.88243 99.851 3.37495 99.8219 2.82565H100.89L100.947 3.65864H100.981C101.124 3.39982 101.335 3.1862 101.611 3.01553C101.942 2.8166 102.311 2.71601 102.716 2.71601C103.226 2.71601 103.651 2.87651 103.989 3.19863C104.41 3.59309 104.619 4.18195 104.619 4.96409V8.15592Z" fill="white"/>
<path d="M112.809 3.71515H111.469V6.30343C111.469 6.96124 111.707 7.29014 112.179 7.29014C112.397 7.29014 112.578 7.27206 112.721 7.23476L112.753 8.13331C112.512 8.22147 112.196 8.26555 111.807 8.26555C111.327 8.26555 110.953 8.12314 110.682 7.83832C110.41 7.55349 110.276 7.07426 110.276 6.40176V3.71515H109.475V2.8279H110.276V1.85137L111.468 1.50099V2.82677H112.808V3.71515H112.809Z" fill="white"/>
<path d="M119.252 8.15591H118.034V5.12683C118.034 4.17177 117.667 3.69367 116.932 3.69367C116.368 3.69367 115.982 3.97058 115.771 4.52441C115.735 4.64082 115.714 4.78323 115.714 4.95051V8.15478H114.498V0.383159H115.714V3.59421H115.737C116.12 3.00987 116.669 2.71826 117.381 2.71826C117.885 2.71826 118.302 2.87876 118.633 3.20088C119.045 3.60212 119.252 4.19889 119.252 4.98781V8.15591Z" fill="white"/>
<path d="M125.898 5.23985C125.898 5.45234 125.882 5.63092 125.853 5.77672H122.203C122.219 6.30342 122.393 6.70466 122.731 6.9827C123.04 7.23136 123.438 7.35569 123.926 7.35569C124.466 7.35569 124.959 7.27205 125.402 7.10364L125.593 7.92646C125.073 8.14573 124.463 8.25537 123.755 8.25537C122.908 8.25537 122.24 8.01236 121.757 7.52635C121.272 7.04035 121.031 6.38819 121.031 5.56989C121.031 4.76628 121.255 4.09717 121.707 3.56369C122.178 2.99404 122.816 2.70922 123.621 2.70922C124.408 2.70922 125.006 2.99404 125.41 3.56369C125.737 4.01579 125.898 4.57526 125.898 5.23985ZM124.737 4.93355C124.746 4.58205 124.666 4.27914 124.501 4.0237C124.29 3.6948 123.968 3.52978 123.532 3.52978C123.135 3.52978 122.811 3.69028 122.564 4.0124C122.362 4.26897 122.242 4.57526 122.203 4.93355H124.737Z" fill="white"/>
<path d="M47.441 28.5807H44.8038L43.3592 24.1625H38.3379L36.9618 28.5807H34.3943L39.3691 13.5393H42.4418L47.441 28.5807ZM42.9237 22.3089L41.6173 18.3813C41.4791 17.98 41.2201 17.0351 40.8381 15.5477H40.7916C40.6395 16.1875 40.3945 17.1324 40.0577 18.3813L38.7745 22.3089H42.9237Z" fill="white"/>
<path d="M60.2346 23.0244C60.2346 24.869 59.7225 26.327 58.6982 27.3973C57.7808 28.3501 56.6416 28.826 55.2818 28.826C53.814 28.826 52.7596 28.3128 52.1174 27.2866H52.0709V33H49.5951V21.3053C49.5951 20.1456 49.5638 18.9555 49.5034 17.7348H51.6808L51.8189 19.4539H51.8654C52.6911 18.1586 53.944 17.5121 55.6255 17.5121C56.9401 17.5121 58.0375 18.0174 58.9154 19.0289C59.7956 20.0416 60.2346 21.3731 60.2346 23.0244ZM57.7123 23.1125C57.7123 22.0569 57.4685 21.1866 56.9784 20.5017C56.4431 19.7873 55.7243 19.4302 54.8231 19.4302C54.2123 19.4302 53.6572 19.6291 53.1614 20.0213C52.6643 20.4169 52.3392 20.9334 52.1871 21.5731C52.1104 21.8715 52.0721 22.1157 52.0721 22.3078V24.1162C52.0721 24.9051 52.3206 25.5708 52.8176 26.1145C53.3146 26.6582 53.9603 26.9294 54.7546 26.9294C55.6871 26.9294 56.4129 26.579 56.932 25.8805C57.4522 25.1809 57.7123 24.2586 57.7123 23.1125Z" fill="white"/>
<path d="M73.0514 23.0244C73.0514 24.869 72.5393 26.327 71.5139 27.3973C70.5977 28.3501 69.4585 28.826 68.0986 28.826C66.6308 28.826 65.5764 28.3128 64.9354 27.2866H64.8889V33H62.4131V21.3053C62.4131 20.1456 62.3818 18.9555 62.3214 17.7348H64.4987L64.6369 19.4539H64.6834C65.5079 18.1586 66.7609 17.5121 68.4435 17.5121C69.7569 17.5121 70.8543 18.0174 71.7346 19.0289C72.6113 20.0416 73.0514 21.3731 73.0514 23.0244ZM70.5292 23.1125C70.5292 22.0569 70.2841 21.1866 69.7941 20.5017C69.2587 19.7873 68.5423 19.4302 67.64 19.4302C67.028 19.4302 66.474 19.6291 65.977 20.0213C65.48 20.4169 65.156 20.9334 65.0039 21.5731C64.9284 21.8715 64.8889 22.1157 64.8889 22.3078V24.1162C64.8889 24.9051 65.1374 25.5708 65.6321 26.1145C66.1291 26.657 66.7748 26.9294 67.5714 26.9294C68.5039 26.9294 69.2297 26.579 69.7488 25.8805C70.269 25.1809 70.5292 24.2586 70.5292 23.1125Z" fill="white"/>
<path d="M87.3813 24.3626C87.3813 25.642 86.925 26.683 86.0087 27.4866C85.0019 28.3648 83.6003 28.8034 81.7992 28.8034C80.1363 28.8034 78.8031 28.4914 77.794 27.8664L78.3677 25.8579C79.4546 26.4976 80.6472 26.8186 81.9467 26.8186C82.8791 26.8186 83.6049 26.6129 84.1263 26.2038C84.6454 25.7946 84.9044 25.2453 84.9044 24.5604C84.9044 23.9501 84.6907 23.4358 84.2622 23.0187C83.836 22.6017 83.1242 22.214 82.1301 21.8557C79.4244 20.8735 78.0727 19.4347 78.0727 17.5427C78.0727 16.3062 78.5465 15.2923 79.4952 14.5034C80.4405 13.7134 81.7016 13.3189 83.2786 13.3189C84.6849 13.3189 85.8531 13.5574 86.7856 14.0332L86.1667 15.9976C85.2957 15.5365 84.311 15.3059 83.2089 15.3059C82.338 15.3059 81.6575 15.515 81.1698 15.9309C80.7575 16.3028 80.5508 16.756 80.5508 17.2929C80.5508 17.8874 80.7866 18.379 81.2603 18.7656C81.6726 19.1227 82.4216 19.5093 83.5085 19.9264C84.8382 20.4474 85.8148 21.0566 86.443 21.7551C87.069 22.4513 87.3813 23.3228 87.3813 24.3626Z" fill="white"/>
<path d="M95.5671 19.5432H92.8381V24.809C92.8381 26.1484 93.3189 26.8175 94.2827 26.8175C94.7251 26.8175 95.0921 26.7802 95.3824 26.7056L95.4509 28.5355C94.9632 28.7129 94.321 28.8022 93.5256 28.8022C92.5478 28.8022 91.7837 28.5117 91.2321 27.9319C90.6828 27.351 90.4064 26.3767 90.4064 25.008V19.5409H88.7807V17.7325H90.4064V15.7467L92.8381 15.0323V17.7325H95.5671V19.5432Z" fill="white"/>
<path d="M107.88 23.0685C107.88 24.7356 107.39 26.1043 106.412 27.1747C105.387 28.2767 104.026 28.826 102.329 28.826C100.694 28.826 99.3922 28.2981 98.4214 27.2425C97.4506 26.1868 96.9652 24.8543 96.9652 23.2482C96.9652 21.5675 97.4645 20.1908 98.4667 19.1205C99.4665 18.049 100.816 17.5133 102.513 17.5133C104.148 17.5133 105.463 18.0411 106.456 19.0979C107.406 20.123 107.88 21.4465 107.88 23.0685ZM105.311 23.1464C105.311 22.1462 105.092 21.2883 104.647 20.5729C104.128 19.7071 103.386 19.2753 102.424 19.2753C101.429 19.2753 100.673 19.7082 100.154 20.5729C99.7092 21.2894 99.4898 22.1609 99.4898 23.1917C99.4898 24.1919 99.7092 25.0498 100.154 25.7641C100.689 26.6299 101.437 27.0616 102.402 27.0616C103.347 27.0616 104.09 26.6208 104.625 25.7415C105.081 25.0125 105.311 24.1456 105.311 23.1464Z" fill="white"/>
<path d="M115.927 19.854C115.682 19.8099 115.421 19.7873 115.147 19.7873C114.276 19.7873 113.603 20.1072 113.129 20.7481C112.717 21.3132 112.51 22.0275 112.51 22.8899V28.5807H110.035L110.058 21.1504C110.058 19.9004 110.027 18.7622 109.965 17.7359H112.122L112.213 19.8111H112.281C112.542 19.0979 112.955 18.5237 113.519 18.0931C114.071 17.7054 114.666 17.5121 115.308 17.5121C115.537 17.5121 115.744 17.528 115.927 17.5562V19.854Z" fill="white"/>
<path d="M127 22.6446C127 23.0764 126.971 23.4403 126.909 23.7376H119.482C119.511 24.809 119.87 25.6285 120.56 26.1936C121.186 26.6988 121.995 26.952 122.989 26.952C124.089 26.952 125.092 26.7813 125.994 26.4389L126.382 28.1116C125.328 28.5592 124.083 28.7819 122.646 28.7819C120.918 28.7819 119.562 28.2868 118.575 27.2979C117.59 26.3089 117.097 24.9808 117.097 23.3148C117.097 21.6794 117.556 20.3174 118.474 19.2312C119.436 18.0716 120.735 17.4918 122.37 17.4918C123.976 17.4918 125.192 18.0716 126.018 19.2312C126.671 20.1524 127 21.2917 127 22.6446ZM124.639 22.0196C124.655 21.3053 124.494 20.6881 124.158 20.1671C123.73 19.4969 123.071 19.1623 122.185 19.1623C121.376 19.1623 120.718 19.4889 120.215 20.1445C119.803 20.6655 119.557 21.2906 119.482 22.0184H124.639V22.0196Z" fill="white"/>
</svg>
