<svg width="141" height="32" viewBox="0 0 141 32" fill="none" xmlns="http://www.w3.org/2000/svg">
<path d="M0.5608 1.3471C0.205576 1.70227 0 2.25524 0 2.97135V28.5147C0 29.2308 0.205576 29.7838 0.5608 30.1389L0.648474 30.2169L15.6344 15.9091V15.5712L0.648474 1.26336L0.5608 1.3471Z" fill="white"/>
<path d="M22.4381 20.6807L17.4483 15.909V15.5712L22.4441 10.7995L22.556 10.8616L28.4724 14.0769C30.1608 14.9894 30.1608 16.4909 28.4724 17.4091L22.556 20.6187L22.4381 20.6807Z" fill="white"/>
<path d="M21.649 21.5072L16.5414 16.6286L1.46774 31.0274C2.02855 31.5905 2.94306 31.6584 3.98304 31.0953L21.649 21.5072Z" fill="white"/>
<path d="M21.649 9.97313L3.98304 0.384995C2.94306 -0.172304 2.02855 -0.104448 1.46774 0.458626L16.5414 14.8517L21.649 9.97313Z" fill="white"/>
<path d="M46.1898 4.47144C46.1898 5.43589 45.8875 6.20831 45.2919 6.78438C44.6071 7.46729 43.7153 7.8109 42.6224 7.8109C41.5779 7.8109 40.6861 7.46151 39.9545 6.77283C39.2213 6.07404 38.8555 5.21643 38.8555 4.18991C38.8555 3.16338 39.2213 2.30578 39.9545 1.61276C40.6861 0.918304 41.5779 0.568909 42.6224 0.568909C43.1424 0.568909 43.6382 0.671417 44.1113 0.861996C44.583 1.05402 44.9669 1.3139 45.245 1.63442L44.6132 2.24369C44.128 1.6965 43.4674 1.42651 42.6224 1.42651C41.8606 1.42651 41.2 1.68062 40.6392 2.19316C40.0845 2.70715 39.8063 3.37273 39.8063 4.18991C39.8063 5.00709 40.0845 5.67844 40.6392 6.19243C41.2 6.69919 41.8606 6.95907 42.6224 6.95907C43.4311 6.95907 44.1113 6.69919 44.648 6.18665C45.0017 5.84737 45.2027 5.37958 45.2556 4.78186H42.6224V3.94735H46.1354C46.1777 4.12782 46.1898 4.30252 46.1898 4.47144Z" fill="white"/>
<path d="M51.763 1.5781H48.4632V3.77265H51.438V4.60715H48.4632V6.8017H51.763V7.65208H47.529V0.727718H51.763V1.5781Z" fill="white"/>
<path d="M55.6962 7.65208H54.762V1.5781H52.738V0.727718H57.7217V1.5781H55.6962V7.65208Z" fill="white"/>
<path d="M61.3284 7.65208V0.727718H62.2611V7.65208H61.3284Z" fill="white"/>
<path d="M66.3952 7.65208H65.4686V1.5781H63.4371V0.727718H68.4268V1.5781H66.3952V7.65208Z" fill="white"/>
<path d="M77.8622 6.76128C77.1472 7.46151 76.2614 7.8109 75.2048 7.8109C74.1422 7.8109 73.2564 7.46151 72.5414 6.76128C71.8279 6.06249 71.4727 5.20488 71.4727 4.18991C71.4727 3.17493 71.8279 2.31733 72.5414 1.61854C73.2564 0.918304 74.1422 0.568909 75.2048 0.568909C76.2554 0.568909 77.1412 0.918303 77.8562 1.62431C78.5757 2.32888 78.9309 3.18071 78.9309 4.18991C78.9309 5.20488 78.5757 6.06249 77.8622 6.76128ZM73.2322 6.18088C73.7703 6.6992 74.4248 6.95907 75.2048 6.95907C75.9788 6.95907 76.6393 6.6992 77.1714 6.18088C77.708 5.66256 77.9801 4.99698 77.9801 4.18991C77.9801 3.38284 77.708 2.71725 77.1714 2.19894C76.6393 1.68062 75.9788 1.42074 75.2048 1.42074C74.4248 1.42074 73.7703 1.68062 73.2322 2.19894C72.6956 2.71725 72.4235 3.38284 72.4235 4.18991C72.4235 4.99698 72.6956 5.66256 73.2322 6.18088Z" fill="white"/>
<path d="M80.2415 7.65208V0.727718H81.3752L84.9002 6.11301H84.941L84.9002 4.78185V0.727718H85.8329V7.65208H84.8594L81.1681 2.00113H81.1273L81.1681 3.33807V7.65208H80.2415Z" fill="white"/>
<path d="M71.2429 17.7643C68.4027 17.7643 66.0824 19.8289 66.0824 22.6775C66.0824 25.503 68.4027 27.5893 71.2429 27.5893C74.0893 27.5893 76.4096 25.503 76.4096 22.6775C76.4096 19.8289 74.0893 17.7643 71.2429 17.7643ZM71.2429 25.6546C69.6845 25.6546 68.3437 24.4259 68.3437 22.6775C68.3437 20.906 69.6845 19.699 71.2429 19.699C72.8014 19.699 74.1482 20.906 74.1482 22.6775C74.1482 24.4259 72.8014 25.6546 71.2429 25.6546ZM59.9831 17.7643C57.1368 17.7643 54.8225 19.8289 54.8225 22.6775C54.8225 25.503 57.1368 27.5893 59.9831 27.5893C62.8279 27.5893 65.1437 25.503 65.1437 22.6775C65.1437 19.8289 62.8279 17.7643 59.9831 17.7643ZM59.9831 25.6546C58.4231 25.6546 57.0778 24.4259 57.0778 22.6775C57.0778 20.906 58.4231 19.699 59.9831 19.699C61.5415 19.699 62.8823 20.906 62.8823 22.6775C62.8823 24.4259 61.5415 25.6546 59.9831 25.6546ZM46.5843 19.2702V21.3579H51.8038C51.6512 22.5245 51.243 23.3821 50.6172 23.9798C49.8554 24.7017 48.6688 25.503 46.5843 25.503C43.3722 25.503 40.8569 23.0269 40.8569 19.9589C40.8569 16.8909 43.3722 14.4148 46.5843 14.4148C48.3211 14.4148 49.5848 15.063 50.5175 15.9033L52.0578 14.4321C50.7533 13.2424 49.018 12.3285 46.5843 12.3285C42.1795 12.3285 38.4776 15.7517 38.4776 19.9589C38.4776 24.1661 42.1795 27.5893 46.5843 27.5893C48.9651 27.5893 50.7533 26.8443 52.1591 25.4467C53.5996 24.0708 54.0486 22.1361 54.0486 20.5739C54.0486 20.0888 54.0062 19.6427 53.9307 19.2702H46.5843ZM101.374 20.8887C100.949 19.79 99.6383 17.7643 96.9688 17.7643C94.3235 17.7643 92.1211 19.7553 92.1211 22.6775C92.1211 25.4294 94.3008 27.5893 97.2227 27.5893C99.5853 27.5893 100.949 26.2133 101.51 25.412L99.7562 24.296C99.1712 25.1132 98.3746 25.6546 97.2227 25.6546C96.0784 25.6546 95.2576 25.1536 94.7316 24.1661L101.611 21.4474L101.374 20.8887ZM94.3598 22.5245C94.3008 20.6302 95.9001 19.66 97.0459 19.66C97.9438 19.66 98.7056 20.0888 98.9595 20.7024L94.3598 22.5245ZM88.7684 27.2904H91.0297V12.8526H88.7684V27.2904ZM85.065 18.8587H84.9894C84.4815 18.2841 83.5126 17.7643 82.2852 17.7643C79.7094 17.7643 77.3543 19.9242 77.3543 22.6934C77.3543 25.4467 79.7094 27.5893 82.2852 27.5893C83.5126 27.5893 84.4815 27.0652 84.9894 26.4732H85.065V27.1778C85.065 29.0561 84.0144 30.0653 82.3199 30.0653C80.9383 30.0653 80.0812 29.1124 79.7275 28.3111L77.7609 29.0951C78.3278 30.3974 79.8288 32 82.3199 32C84.9713 32 87.2084 30.51 87.2084 26.8847V18.0632H85.065V18.8587ZM82.4786 25.6546C80.9202 25.6546 79.6157 24.4086 79.6157 22.6934C79.6157 20.9623 80.9202 19.699 82.4786 19.699C84.0144 19.699 85.2252 20.9623 85.2252 22.6934C85.2252 24.4086 84.0144 25.6546 82.4786 25.6546ZM111.961 12.8526H106.552V27.2904H108.808V21.8199H111.961C114.465 21.8199 116.922 20.0888 116.922 17.3355C116.922 14.5837 114.459 12.8526 111.961 12.8526ZM112.02 19.8116H108.808V14.8609H112.02C113.704 14.8609 114.665 16.1964 114.665 17.3355C114.665 18.453 113.704 19.8116 112.02 19.8116ZM125.961 17.7369C124.332 17.7369 122.637 18.4241 121.94 19.9473L123.942 20.7486C124.372 19.9473 125.165 19.6875 126.002 19.6875C127.172 19.6875 128.359 20.3588 128.377 21.5442V21.6957C127.969 21.4705 127.095 21.137 126.02 21.137C123.865 21.137 121.668 22.2704 121.668 24.3855C121.668 26.3202 123.434 27.5662 125.418 27.5662C126.936 27.5662 127.774 26.9121 128.3 26.1513H128.377V27.2673H130.555V21.729C130.555 19.1691 128.554 17.7369 125.961 17.7369ZM125.689 25.6488C124.951 25.6488 123.924 25.2994 123.924 24.4259C123.924 23.3085 125.205 22.8796 126.315 22.8796C127.308 22.8796 127.774 23.089 128.377 23.3648C128.2 24.7017 126.995 25.6488 125.689 25.6488ZM138.491 18.0531L135.898 24.3119H135.821L133.141 18.0531H130.709L134.736 26.7995L132.438 31.6665H134.795L141 18.0531H138.491ZM118.161 27.2904H120.423V12.8526H118.161V27.2904Z" fill="white"/>
</svg>
