<svg width="26" height="26" viewBox="0 0 26 26" fill="none" xmlns="http://www.w3.org/2000/svg">
<path d="M22.5 13C22.6381 13 22.7503 13.1119 22.7468 13.25C22.7029 14.9612 22.2092 16.6323 21.3132 18.0943C20.3737 19.6275 19.0285 20.871 17.4264 21.6873C15.8243 22.5036 14.0276 22.861 12.235 22.7199C10.4425 22.5788 8.72381 21.9448 7.2691 20.8879C5.81439 19.831 4.68029 18.3924 3.99218 16.7311C3.30407 15.0699 3.08876 13.2507 3.37004 11.4747C3.65133 9.69876 4.41826 8.03516 5.58605 6.66786C6.69966 5.36399 8.13642 4.378 9.75032 3.80747C9.88049 3.76146 10.0217 3.83362 10.0643 3.96494L12.4948 11.4453C12.7961 12.3723 13.66 13 14.6347 13H22.5Z" fill="white" stroke="white" stroke-width="1.5"/>
<path d="M13.9444 3.77943C13.9018 3.64811 13.9735 3.50654 14.1065 3.46942C14.9299 3.23957 15.7942 3.18936 16.6405 3.3234C17.5692 3.47049 18.4499 3.83529 19.2106 4.38798C19.9713 4.94067 20.5904 5.66555 21.0173 6.50335C21.4063 7.26681 21.6256 8.10429 21.6615 8.95844C21.6673 9.09639 21.5548 9.20837 21.4167 9.20837L16.6166 9.20837C16.0751 9.20837 15.5951 8.85967 15.4278 8.34465L13.9444 3.77943Z" fill="white" stroke="white" stroke-width="1.5"/>
</svg>
