<svg width="26" height="26" viewBox="0 0 26 26" fill="none" xmlns="http://www.w3.org/2000/svg">
<path d="M11.3709 4.33325C3.92674 5.7777 3.25 12.9999 3.25 12.9999M3.25 12.9999V17.6061C3.25 18.5925 3.25 19.0857 3.36488 19.4888C3.64935 20.487 4.42958 21.2672 5.42777 21.5517C5.83086 21.6666 6.32406 21.6666 7.31046 21.6666V21.6666C8.29686 21.6666 8.79006 21.6666 9.19315 21.5517C10.1913 21.2672 10.9716 20.487 11.256 19.4888C11.3709 19.0857 11.3709 18.5925 11.3709 17.6061V17.3333C11.3709 16.0917 11.3709 15.4709 11.19 14.9739C10.8867 14.1406 10.2303 13.4841 9.39699 13.1808C8.89991 12.9999 8.27913 12.9999 7.03759 12.9999H3.25Z" stroke="white" stroke-width="1.5"/>
<path d="M22.7501 4.33325C15.3059 5.7777 14.6292 12.9999 14.6292 12.9999M14.6292 12.9999V17.6061C14.6292 18.5925 14.6292 19.0857 14.744 19.4888C15.0285 20.487 15.8087 21.2672 16.8069 21.5517C17.21 21.6666 17.7032 21.6666 18.6896 21.6666V21.6666C19.676 21.6666 20.1692 21.6666 20.5723 21.5517C21.5705 21.2672 22.3507 20.487 22.6352 19.4888C22.7501 19.0857 22.7501 18.5925 22.7501 17.6061V17.3333C22.7501 16.0917 22.7501 15.4709 22.5692 14.9739C22.2659 14.1406 21.6094 13.4841 20.7761 13.1808C20.2791 12.9999 19.6583 12.9999 18.4167 12.9999H14.6292Z" stroke="white" stroke-width="1.5"/>
</svg>
