<svg width="26" height="26" viewBox="0 0 26 26" fill="none" xmlns="http://www.w3.org/2000/svg">
<path d="M11.4461 5.45556C12.326 4.59189 12.766 4.16005 13.0835 4.11068C13.2168 4.08996 13.26 4.09001 13.3932 4.11105C13.7106 4.16119 14.1521 4.59663 15.0351 5.4675C15.6562 6.08015 16.3871 6.64181 17.1403 6.87791C17.7785 7.07797 18.6138 7.10101 19.3469 7.06451C20.1226 7.02588 20.5104 7.00657 20.7693 7.15997C20.8562 7.21144 20.9273 7.26903 20.9956 7.34336C21.1993 7.56486 21.2516 7.89057 21.356 8.54199C21.6709 10.5062 21.9772 13.7791 21.0323 15.9477C20.1986 17.8613 18.0687 19.6539 16.2472 20.9179C15.185 21.6551 14.6539 22.0237 13.7065 22.1546C13.4663 22.1878 13.0114 22.1969 12.7701 22.1733C11.8182 22.0803 11.2722 21.7329 10.1802 21.0379C8.21552 19.7875 5.87245 17.9639 4.97759 15.9477C4.01957 13.7892 4.32769 10.5229 4.64693 8.55543C4.75372 7.89731 4.80711 7.56826 5.0152 7.34585C5.08457 7.2717 5.15796 7.21346 5.24593 7.16274C5.50978 7.01061 5.89794 7.03715 6.67426 7.09023C7.54605 7.14984 8.58433 7.13911 9.35616 6.87791C10.1 6.62617 10.8263 6.06398 11.4461 5.45556Z" fill="white" stroke="white" stroke-width="1.5" stroke-linejoin="round"/>
</svg>
