<svg width="22" height="22" viewBox="0 0 22 22" fill="none" xmlns="http://www.w3.org/2000/svg">
<path d="M10.0493 0.88853C10.3508 -0.0282446 11.6477 -0.0282412 11.9492 0.888534L14.0588 7.30304C14.158 7.60473 14.3947 7.84135 14.6963 7.94057L21.1109 10.0502C22.0276 10.3517 22.0276 11.6486 21.1109 11.9501L14.6963 14.0597C14.3947 14.1589 14.158 14.3955 14.0588 14.6972L11.9492 21.1117C11.6477 22.0285 10.3508 22.0285 10.0493 21.1117L7.93971 14.6972C7.84049 14.3955 7.60387 14.1589 7.30219 14.0597L0.887676 11.9501C-0.0290986 11.6486 -0.0290959 10.3517 0.887679 10.0502L7.30219 7.94057C7.60387 7.84135 7.84049 7.60473 7.93971 7.30304L10.0493 0.88853Z" fill="#2BB32A"/>
</svg>
