<svg width="465" height="275" viewBox="0 0 465 275" fill="none" xmlns="http://www.w3.org/2000/svg">
<path d="M4.134 216L4.134 205.78H5.996L10.574 213.116H10.602L10.602 205.78H12.338L12.338 216H10.476L5.912 208.664H5.884V216H4.134ZM16.2307 216.14C15.5027 216.14 14.9287 215.944 14.5087 215.552C14.098 215.151 13.8927 214.609 13.8927 213.928C13.8927 213.079 14.224 212.425 14.8867 211.968C15.5493 211.511 16.492 211.282 17.7147 211.282H18.7367C18.7367 210.927 18.69 210.657 18.5967 210.47C18.5127 210.274 18.3633 210.139 18.1487 210.064C17.9433 209.989 17.6493 209.952 17.2667 209.952C16.8 209.952 16.3147 209.999 15.8107 210.092C15.316 210.185 14.8493 210.325 14.4107 210.512L14.1867 209.154C14.6627 208.977 15.19 208.837 15.7687 208.734C16.3473 208.631 16.926 208.58 17.5047 208.58C18.242 208.58 18.8207 208.669 19.2407 208.846C19.67 209.023 19.978 209.322 20.1647 209.742C20.3513 210.162 20.4447 210.717 20.4447 211.408L20.4447 216H18.8067L18.7927 215.16H18.7647C18.5127 215.449 18.1487 215.687 17.6727 215.874C17.1967 216.051 16.716 216.14 16.2307 216.14ZM16.8467 214.796C17.192 214.796 17.5093 214.735 17.7987 214.614C18.088 214.483 18.3167 214.311 18.4847 214.096C18.6527 213.881 18.7367 213.639 18.7367 213.368V212.486H17.9667C17.164 212.486 16.5573 212.593 16.1467 212.808C15.7453 213.013 15.5447 213.331 15.5447 213.76C15.5447 214.077 15.6567 214.329 15.8807 214.516C16.1047 214.703 16.4267 214.796 16.8467 214.796ZM22.2876 216L22.2876 208.72H23.8836L23.9116 209.574H23.9396C24.201 209.257 24.5136 209.014 24.8776 208.846C25.2416 208.669 25.6663 208.58 26.1516 208.58C26.6276 208.58 27.029 208.669 27.3556 208.846C27.6916 209.014 27.9296 209.257 28.0696 209.574H28.0976C28.3776 209.229 28.6996 208.977 29.0636 208.818C29.4276 208.659 29.857 208.58 30.3516 208.58C31.1356 208.58 31.705 208.79 32.0596 209.21C32.4143 209.621 32.5916 210.269 32.5916 211.156V216H30.9256L30.9256 211.576C30.9256 211.025 30.837 210.624 30.6596 210.372C30.4823 210.12 30.1976 209.994 29.8056 209.994C29.339 209.994 28.9703 210.148 28.6996 210.456C28.429 210.764 28.2936 211.175 28.2936 211.688L28.2936 216H26.6136L26.6136 211.45C26.6136 210.974 26.5156 210.615 26.3196 210.372C26.1236 210.12 25.8436 209.994 25.4796 209.994C25.1996 209.994 24.943 210.069 24.7096 210.218C24.4856 210.367 24.3036 210.568 24.1636 210.82C24.033 211.072 23.9676 211.361 23.9676 211.688L23.9676 216H22.2876ZM37.9419 216.14C36.6539 216.14 35.6646 215.813 34.9739 215.16C34.2833 214.507 33.9379 213.573 33.9379 212.36C33.9379 211.184 34.2553 210.26 34.8899 209.588C35.5339 208.916 36.4113 208.58 37.5219 208.58C38.5953 208.58 39.4259 208.897 40.0139 209.532C40.6019 210.167 40.8959 211.067 40.8959 212.234C40.8959 212.365 40.8913 212.509 40.8819 212.668C40.8726 212.827 40.8633 212.943 40.8539 213.018H34.8899V211.772H39.5379L39.2859 212.15C39.2859 211.385 39.1366 210.82 38.8379 210.456C38.5486 210.083 38.1099 209.896 37.5219 209.896C36.8966 209.896 36.4206 210.092 36.0939 210.484C35.7766 210.867 35.6179 211.436 35.6179 212.192V212.682C35.6179 213.391 35.8046 213.919 36.1779 214.264C36.5513 214.6 37.1159 214.768 37.8719 214.768C38.2639 214.768 38.6839 214.731 39.1319 214.656C39.5799 214.572 39.9766 214.465 40.3219 214.334L40.5319 215.678C40.1773 215.818 39.7713 215.93 39.3139 216.014C38.8566 216.098 38.3993 216.14 37.9419 216.14Z" fill="#B9BEBD"/>
<path d="M8.84326 100.531C7.7326 100.531 6.77593 100.321 5.97326 99.9007C5.1706 99.4807 4.5546 98.8787 4.12526 98.0947C3.70526 97.3107 3.49526 96.3727 3.49526 95.2807C3.49526 94.1794 3.70526 93.2414 4.12526 92.4667C4.5546 91.6827 5.1706 91.0807 5.97326 90.6607C6.77593 90.2407 7.7326 90.0307 8.84326 90.0307C10.1126 90.0307 11.2373 90.306 12.2173 90.8567L11.8113 92.3967C10.8593 91.8554 9.8886 91.5847 8.89926 91.5847C8.16193 91.5847 7.5226 91.734 6.98126 92.0327C6.43993 92.322 6.0246 92.742 5.73526 93.2927C5.44593 93.8434 5.30126 94.506 5.30126 95.2807C5.30126 96.046 5.44593 96.7087 5.73526 97.2687C6.0246 97.8194 6.43993 98.244 6.98126 98.5427C7.5226 98.832 8.16193 98.9767 8.89926 98.9767C9.8606 98.9767 10.8313 98.706 11.8113 98.1647L12.2173 99.7047C11.2373 100.255 10.1126 100.531 8.84326 100.531ZM13.9237 100.391V93.1107H15.5757L15.5897 94.4827H15.6177C15.8604 94.1654 16.1451 93.8947 16.4717 93.6707C16.8077 93.4374 17.1764 93.2647 17.5777 93.1527C17.9791 93.0314 18.3991 92.9707 18.8377 92.9707V94.4547C18.2497 94.4547 17.7131 94.5667 17.2277 94.7907C16.7517 95.0147 16.3691 95.318 16.0797 95.7007C15.7997 96.074 15.6597 96.494 15.6597 96.9607V100.391H13.9237ZM23.1796 100.531C21.8916 100.531 20.9023 100.204 20.2116 99.5507C19.5209 98.8974 19.1756 97.964 19.1756 96.7507C19.1756 95.5747 19.4929 94.6507 20.1276 93.9787C20.7716 93.3067 21.6489 92.9707 22.7596 92.9707C23.8329 92.9707 24.6636 93.288 25.2516 93.9227C25.8396 94.5574 26.1336 95.458 26.1336 96.6247C26.1336 96.7554 26.1289 96.9 26.1196 97.0587C26.1103 97.2174 26.1009 97.334 26.0916 97.4087H20.1276L20.1276 96.1627H24.7756L24.5236 96.5407C24.5236 95.7754 24.3743 95.2107 24.0756 94.8467C23.7863 94.4734 23.3476 94.2867 22.7596 94.2867C22.1343 94.2867 21.6583 94.4827 21.3316 94.8747C21.0143 95.2574 20.8556 95.8267 20.8556 96.5827V97.0727C20.8556 97.782 21.0423 98.3094 21.4156 98.6547C21.7889 98.9907 22.3536 99.1587 23.1096 99.1587C23.5016 99.1587 23.9216 99.1214 24.3696 99.0467C24.8176 98.9627 25.2143 98.8554 25.5596 98.7247L25.7696 100.069C25.4149 100.209 25.0089 100.321 24.5516 100.405C24.0943 100.489 23.6369 100.531 23.1796 100.531ZM30.2947 100.531C29.324 100.531 28.568 100.199 28.0267 99.5367C27.4853 98.874 27.2147 97.9454 27.2147 96.7507C27.2147 95.556 27.4853 94.6274 28.0267 93.9647C28.568 93.302 29.324 92.9707 30.2947 92.9707C30.78 92.9707 31.2187 93.0547 31.6107 93.2227C32.0027 93.3907 32.334 93.638 32.6047 93.9647H32.6467V90.1707H34.3407V100.391H32.7307L32.7027 99.5367H32.6747C32.404 99.854 32.0587 100.101 31.6387 100.279C31.228 100.447 30.78 100.531 30.2947 100.531ZM30.7427 99.1307C31.1067 99.1307 31.4287 99.056 31.7087 98.9067C31.998 98.7574 32.2267 98.552 32.3947 98.2907C32.5627 98.0294 32.6467 97.7354 32.6467 97.4087V96.0927C32.6467 95.7567 32.5627 95.4627 32.3947 95.2107C32.2267 94.9494 32.0027 94.744 31.7227 94.5947C31.4427 94.4454 31.116 94.3707 30.7427 94.3707C30.1547 94.3707 29.6973 94.576 29.3707 94.9867C29.0533 95.3974 28.8947 95.9854 28.8947 96.7507C28.8947 97.516 29.0533 98.104 29.3707 98.5147C29.6973 98.9254 30.1547 99.1307 30.7427 99.1307ZM36.5123 91.8227V90.1707H38.2483V91.8227H36.5123ZM36.5123 100.391V93.1527H38.2483V100.391H36.5123ZM43.6822 100.531C42.8235 100.531 42.2028 100.353 41.8202 99.9987C41.4375 99.644 41.2462 99.0654 41.2462 98.2627V94.4827H39.6222V93.1107H41.2462V90.7307H42.9822V93.1107H45.4322V94.4827H42.9822V97.8287C42.9822 98.2954 43.0568 98.622 43.2062 98.8087C43.3648 98.986 43.6402 99.0747 44.0322 99.0747C44.2375 99.0747 44.4522 99.056 44.6762 99.0187C44.9002 98.9814 45.1008 98.93 45.2782 98.8647L45.4322 100.279C45.1148 100.372 44.8162 100.437 44.5362 100.475C44.2562 100.512 43.9715 100.531 43.6822 100.531ZM55.9292 100.531C54.8185 100.531 53.8619 100.321 53.0592 99.9007C52.2565 99.4807 51.6405 98.8787 51.2112 98.0947C50.7912 97.3107 50.5812 96.3727 50.5812 95.2807C50.5812 94.1794 50.7912 93.2414 51.2112 92.4667C51.6405 91.6827 52.2565 91.0807 53.0592 90.6607C53.8619 90.2407 54.8185 90.0307 55.9292 90.0307C57.1985 90.0307 58.3232 90.306 59.3032 90.8567L58.8972 92.3967C57.9452 91.8554 56.9745 91.5847 55.9852 91.5847C55.2479 91.5847 54.6085 91.734 54.0672 92.0327C53.5259 92.322 53.1105 92.742 52.8212 93.2927C52.5319 93.8434 52.3872 94.506 52.3872 95.2807C52.3872 96.046 52.5319 96.7087 52.8212 97.2687C53.1105 97.8194 53.5259 98.244 54.0672 98.5427C54.6085 98.832 55.2479 98.9767 55.9852 98.9767C56.9465 98.9767 57.9172 98.706 58.8972 98.1647L59.3032 99.7047C58.3232 100.255 57.1985 100.531 55.9292 100.531ZM62.6636 100.531C61.9356 100.531 61.3616 100.335 60.9416 99.9427C60.531 99.5414 60.3256 99 60.3256 98.3187C60.3256 97.4694 60.657 96.816 61.3196 96.3587C61.9823 95.9014 62.925 95.6727 64.1476 95.6727H65.1696C65.1696 95.318 65.123 95.0474 65.0296 94.8607C64.9456 94.6647 64.7963 94.5294 64.5816 94.4547C64.3763 94.38 64.0823 94.3427 63.6996 94.3427C63.233 94.3427 62.7476 94.3894 62.2436 94.4827C61.749 94.576 61.2823 94.716 60.8436 94.9027L60.6196 93.5447C61.0956 93.3674 61.623 93.2274 62.2016 93.1247C62.7803 93.022 63.359 92.9707 63.9376 92.9707C64.675 92.9707 65.2536 93.0594 65.6736 93.2367C66.103 93.414 66.411 93.7127 66.5976 94.1327C66.7843 94.5527 66.8776 95.108 66.8776 95.7987V100.391H65.2396L65.2256 99.5507H65.1976C64.9456 99.84 64.5816 100.078 64.1056 100.265C63.6296 100.442 63.149 100.531 62.6636 100.531ZM63.2796 99.1867C63.625 99.1867 63.9423 99.126 64.2316 99.0047C64.521 98.874 64.7496 98.7014 64.9176 98.4867C65.0856 98.272 65.1696 98.0294 65.1696 97.7587V96.8767H64.3996C63.597 96.8767 62.9903 96.984 62.5796 97.1987C62.1783 97.404 61.9776 97.7214 61.9776 98.1507C61.9776 98.468 62.0896 98.72 62.3136 98.9067C62.5376 99.0934 62.8596 99.1867 63.2796 99.1867ZM68.7206 100.391V93.1107H70.3726L70.3866 94.4827H70.4146C70.6573 94.1654 70.9419 93.8947 71.2686 93.6707C71.6046 93.4374 71.9733 93.2647 72.3746 93.1527C72.7759 93.0314 73.1959 92.9707 73.6346 92.9707V94.4547C73.0466 94.4547 72.5099 94.5667 72.0246 94.7907C71.5486 95.0147 71.1659 95.318 70.8766 95.7007C70.5966 96.074 70.4566 96.494 70.4566 96.9607V100.391H68.7206ZM77.0525 100.531C76.0818 100.531 75.3258 100.199 74.7845 99.5367C74.2431 98.874 73.9725 97.9454 73.9725 96.7507C73.9725 95.556 74.2431 94.6274 74.7845 93.9647C75.3258 93.302 76.0818 92.9707 77.0525 92.9707C77.5378 92.9707 77.9765 93.0547 78.3685 93.2227C78.7605 93.3907 79.0918 93.638 79.3625 93.9647H79.4045V90.1707H81.0985V100.391H79.4885L79.4605 99.5367H79.4325C79.1618 99.854 78.8165 100.101 78.3965 100.279C77.9858 100.447 77.5378 100.531 77.0525 100.531ZM77.5005 99.1307C77.8645 99.1307 78.1865 99.056 78.4665 98.9067C78.7558 98.7574 78.9845 98.552 79.1525 98.2907C79.3205 98.0294 79.4045 97.7354 79.4045 97.4087V96.0927C79.4045 95.7567 79.3205 95.4627 79.1525 95.2107C78.9845 94.9494 78.7605 94.744 78.4805 94.5947C78.2005 94.4454 77.8738 94.3707 77.5005 94.3707C76.9125 94.3707 76.4551 94.576 76.1285 94.9867C75.8111 95.3974 75.6525 95.9854 75.6525 96.7507C75.6525 97.516 75.8111 98.104 76.1285 98.5147C76.4551 98.9254 76.9125 99.1307 77.5005 99.1307ZM87.1529 100.391V90.1707H89.0149L93.5929 97.5067H93.6209V90.1707H95.3569V100.391H93.4949L88.9309 93.0547H88.9029V100.391H87.1529ZM100.692 100.531C99.5156 100.531 98.6056 100.204 97.9616 99.5507C97.3269 98.888 97.0096 97.9547 97.0096 96.7507C97.0096 95.5467 97.3269 94.618 97.9616 93.9647C98.6056 93.302 99.5156 92.9707 100.692 92.9707C101.868 92.9707 102.778 93.302 103.422 93.9647C104.066 94.618 104.388 95.5467 104.388 96.7507C104.388 97.9547 104.066 98.888 103.422 99.5507C102.778 100.204 101.868 100.531 100.692 100.531ZM100.692 99.1587C101.336 99.1587 101.826 98.958 102.162 98.5567C102.498 98.146 102.666 97.544 102.666 96.7507C102.666 95.9574 102.498 95.36 102.162 94.9587C101.826 94.548 101.336 94.3427 100.692 94.3427C100.057 94.3427 99.5669 94.548 99.2216 94.9587C98.8856 95.36 98.7176 95.9574 98.7176 96.7507C98.7176 97.544 98.8856 98.146 99.2216 98.5567C99.5669 98.958 100.057 99.1587 100.692 99.1587ZM105.749 100.391V98.4167H107.737V100.391H105.749Z" fill="#B9BEBD"/>
<path d="M183.758 216.518V206.298H190.59V207.81H185.508V210.442H190.31V211.926H185.508V215.006H190.59V216.518H183.758ZM191.712 216.518L194.022 212.85L191.74 209.238H193.644L195.184 211.954H195.212L196.752 209.238H198.656L196.374 212.85L198.684 216.518H196.78L195.212 213.76H195.184L193.63 216.518H191.712ZM204.181 209.098C205.152 209.098 205.908 209.429 206.449 210.092C206.99 210.755 207.261 211.683 207.261 212.878C207.261 214.073 206.99 215.001 206.449 215.664C205.908 216.327 205.152 216.658 204.181 216.658C203.705 216.658 203.266 216.574 202.865 216.406C202.473 216.229 202.142 215.981 201.871 215.664H201.843V219.458H200.121V209.238H201.759L201.773 210.092H201.801C202.081 209.765 202.426 209.518 202.837 209.35C203.248 209.182 203.696 209.098 204.181 209.098ZM203.733 210.498C203.378 210.498 203.056 210.573 202.767 210.722C202.478 210.871 202.249 211.077 202.081 211.338C201.922 211.59 201.843 211.884 201.843 212.22V213.536C201.843 213.863 201.922 214.157 202.081 214.418C202.249 214.679 202.478 214.885 202.767 215.034C203.056 215.183 203.378 215.258 203.733 215.258C204.33 215.258 204.788 215.053 205.105 214.642C205.422 214.231 205.581 213.643 205.581 212.878C205.581 212.113 205.422 211.525 205.105 211.114C204.788 210.703 204.33 210.498 203.733 210.498ZM208.63 216.518V214.544H210.618V216.518H208.63Z" fill="#B9BEBD"/>
<path d="M187.949 251.289C186.781 251.289 185.913 250.921 185.345 250.185C184.777 249.449 184.493 248.317 184.493 246.789C184.493 245.261 184.777 244.129 185.345 243.393C185.913 242.657 186.781 242.289 187.949 242.289C189.117 242.289 189.981 242.657 190.541 243.393C191.109 244.129 191.393 245.261 191.393 246.789C191.393 248.317 191.109 249.449 190.541 250.185C189.981 250.921 189.117 251.289 187.949 251.289ZM187.949 249.957C188.613 249.957 189.097 249.701 189.401 249.189C189.705 248.677 189.857 247.877 189.857 246.789C189.857 245.693 189.705 244.893 189.401 244.389C189.097 243.877 188.613 243.621 187.949 243.621C187.285 243.621 186.797 243.877 186.485 244.389C186.181 244.893 186.029 245.693 186.029 246.789C186.029 247.877 186.181 248.677 186.485 249.189C186.797 249.701 187.285 249.957 187.949 249.957ZM195.66 242.289C196.38 242.289 196.988 242.417 197.484 242.673C197.98 242.929 198.352 243.305 198.6 243.801C198.856 244.297 198.984 244.913 198.984 245.649C198.984 246.753 198.768 247.717 198.336 248.541C197.912 249.357 197.304 250.001 196.512 250.473C195.72 250.945 194.768 251.213 193.656 251.277L193.392 250.065C194.384 250.009 195.192 249.797 195.816 249.429C196.44 249.053 196.9 248.505 197.196 247.785L197.172 247.773C196.884 247.941 196.576 248.069 196.248 248.157C195.928 248.245 195.576 248.289 195.192 248.289C194.304 248.289 193.604 248.029 193.092 247.509C192.588 246.989 192.336 246.269 192.336 245.349C192.336 244.709 192.468 244.161 192.732 243.705C192.996 243.249 193.376 242.901 193.872 242.661C194.368 242.413 194.964 242.289 195.66 242.289ZM195.66 243.573C195.068 243.573 194.612 243.729 194.292 244.041C193.98 244.345 193.824 244.773 193.824 245.325C193.824 245.877 193.972 246.309 194.268 246.621C194.572 246.925 195.004 247.077 195.564 247.077C195.964 247.077 196.308 247.013 196.596 246.885C196.884 246.749 197.104 246.553 197.256 246.297C197.416 246.033 197.496 245.725 197.496 245.373C197.496 245.061 197.432 244.769 197.304 244.497C197.184 244.225 196.988 244.005 196.716 243.837C196.452 243.661 196.1 243.573 195.66 243.573ZM199.651 251.649L203.923 241.929H205.387L201.115 251.649H199.651ZM209.695 251.169V244.089H209.671L206.599 245.901L206.167 244.593L209.695 242.409H211.219V251.169H209.695ZM217.406 251.169V244.089H217.382L214.31 245.901L213.878 244.593L217.406 242.409H218.93V251.169H217.406Z" fill="white"/>
<path d="M3.94126 251.169L3.94126 242.409H6.58126C7.86926 242.409 8.80926 242.617 9.40126 243.033C10.0013 243.449 10.3013 244.109 10.3013 245.013C10.3013 245.901 10.0133 246.565 9.43727 247.005C8.86927 247.445 8.00126 247.665 6.83326 247.665H4.60126V246.513H6.64126C7.45726 246.513 8.04526 246.401 8.40526 246.177C8.77326 245.945 8.95726 245.573 8.95726 245.061C8.95726 244.549 8.77326 244.181 8.40526 243.957C8.04526 243.725 7.45726 243.609 6.64126 243.609H5.26126L5.26126 251.169H3.94126ZM9.06526 251.169L5.09326 247.161H6.76126L10.7813 251.169H9.06526ZM12.2147 251.169L12.2147 242.409H17.9747V243.585H13.5347V246.009H17.7347V247.161H13.5347V249.993H17.9747V251.169H12.2147ZM25.2085 251.169L25.2085 242.409H26.5285L26.5285 251.169H25.2085ZM19.8085 251.169L19.8085 242.409H21.1285L21.1285 251.169H19.8085ZM20.4685 247.185V245.985H25.8685V247.185H20.4685ZM27.7101 251.169L30.9021 242.409H32.6901L35.8701 251.169H34.4181L31.8021 243.537H31.7781L29.1621 251.169H27.7101ZM29.3661 248.973V247.773H34.2261V248.973H29.3661ZM37.0467 251.169V242.409H38.4867L42.6627 249.009H42.6867V242.409H44.0067V251.169H42.5667L38.3907 244.569H38.3667V251.169H37.0467ZM49.41 251.169V242.409H52.05C53.338 242.409 54.278 242.617 54.87 243.033C55.47 243.449 55.77 244.109 55.77 245.013C55.77 245.901 55.482 246.565 54.906 247.005C54.338 247.445 53.47 247.665 52.302 247.665H50.07V246.513H52.11C52.926 246.513 53.514 246.401 53.874 246.177C54.242 245.945 54.426 245.573 54.426 245.061C54.426 244.549 54.242 244.181 53.874 243.957C53.514 243.725 52.926 243.609 52.11 243.609H50.73V251.169H49.41ZM54.534 251.169L50.562 247.161H52.23L56.25 251.169H54.534ZM56.8195 251.169L60.0115 242.409H61.7995L64.9795 251.169H63.5275L60.9115 243.537H60.8875L58.2715 251.169H56.8195ZM58.4755 248.973V247.773H63.3355V248.973H58.4755ZM66.2641 251.169V242.409H67.6321V251.169H66.2641ZM75.1772 251.169V242.409H76.4972V251.169H75.1772ZM69.7772 251.169V242.409H71.0972V251.169H69.7772ZM70.4372 247.185V245.985H75.8372V247.185H70.4372ZM77.6788 251.169L80.8708 242.409H82.6588L85.8388 251.169H84.3868L81.7708 243.537H81.7468L79.1308 251.169H77.6788ZM79.3348 248.973V247.773H84.1948V248.973H79.3348ZM87.0155 251.169V242.409H88.4555L92.6315 249.009H92.6555V242.409H93.9755V251.169H92.5355L88.3595 244.569H88.3355V251.169H87.0155Z" fill="white"/>
<path fill-rule="evenodd" clip-rule="evenodd" d="M29.3922 30.3188C32.8789 27.1272 35.0643 22.5485 35.0643 17.4603C35.0643 12.3721 32.8789 7.79334 29.3922 4.60178C32.5133 1.74523 36.6787 0 41.2521 0C50.9346 0 58.7841 7.81741 58.7841 17.4603C58.7841 27.1032 50.9346 34.9206 41.2521 34.9206C36.6787 34.9206 32.5133 33.1753 29.3922 30.3188ZM29.3922 30.3188C26.2711 33.1753 22.1057 34.9206 17.5323 34.9206C7.84988 34.9206 0.000366211 27.1032 0.000366211 17.4603C0.000366211 7.81741 7.84988 0 17.5323 0C22.1057 0 26.2711 1.74523 29.3922 4.60178C25.9056 7.79334 23.7201 12.3721 23.7201 17.4603C23.7201 22.5485 25.9056 27.1272 29.3922 30.3188Z" fill="white"/>
<path fill-rule="evenodd" clip-rule="evenodd" d="M451.907 0.338523C452.725 -0.244014 453.863 -0.0554783 454.448 0.759629C457.562 5.09977 461.277 12.5021 462.366 20.7472C463.463 29.0487 461.898 38.316 454.262 46.0212C453.556 46.7343 452.403 46.7418 451.687 46.0381C450.971 45.3343 450.963 44.1857 451.67 43.4727C458.329 36.7525 459.743 28.7037 458.754 21.2203C457.759 13.6806 454.326 6.82933 451.484 2.86918C450.899 2.05407 451.088 0.921059 451.907 0.338523ZM444.012 6.99161C444.829 6.40786 445.967 6.59472 446.553 7.40896C448.752 10.4631 451.368 15.6576 452.136 21.4582C452.912 27.316 451.805 33.9016 446.367 39.3717C445.66 40.0837 444.506 40.0894 443.791 39.3845C443.076 38.6797 443.071 37.5311 443.778 36.8191C448.237 32.3337 449.192 26.9688 448.525 21.9328C447.85 16.8396 445.518 12.1971 443.592 9.52289C443.006 8.70864 443.194 7.57535 444.012 6.99161ZM437.933 14.2528C438.748 13.6652 439.886 13.8467 440.477 14.6582C441.677 16.3092 443.097 19.0961 443.516 22.2323C443.944 25.4282 443.333 29.0907 440.289 32.1219C439.578 32.8304 438.425 32.8304 437.713 32.1219C437.002 31.4135 437.002 30.2649 437.713 29.5565C439.77 27.5084 440.221 25.0737 439.905 22.7115C439.581 20.2896 438.451 18.0577 437.526 16.7861C436.936 15.9746 437.118 14.8405 437.933 14.2528Z" fill="white"/>
<path d="M8.128 150.587L8.128 132.507H8.064L1.216 138.235L1.216 132.987L8.128 127.227H12.736L12.736 150.587H8.128ZM24 150.907C22.208 150.907 20.768 150.597 19.68 149.979C18.6133 149.36 17.8347 148.347 17.344 146.939C16.8747 145.531 16.64 143.653 16.64 141.307C16.64 138 17.0667 135.301 17.92 133.211C18.7733 131.099 20.096 129.531 21.888 128.507C23.68 127.483 25.984 126.949 28.8 126.907V130.875C27.52 130.875 26.368 131.088 25.344 131.515C24.32 131.92 23.4987 132.485 22.88 133.211C22.2613 133.936 21.9093 134.789 21.824 135.771H21.952C22.5493 135.451 23.1147 135.227 23.648 135.099C24.1813 134.971 24.7573 134.907 25.376 134.907C27.424 134.907 28.928 135.536 29.888 136.795C30.8693 138.032 31.36 139.963 31.36 142.587C31.36 145.552 30.784 147.685 29.632 148.987C28.5013 150.267 26.624 150.907 24 150.907ZM24.032 147.067C24.992 147.067 25.696 146.725 26.144 146.043C26.592 145.339 26.816 144.261 26.816 142.811C26.816 141.36 26.592 140.293 26.144 139.611C25.696 138.907 24.992 138.555 24.032 138.555C23.072 138.555 22.368 138.907 21.92 139.611C21.472 140.293 21.248 141.36 21.248 142.811C21.248 144.261 21.472 145.339 21.92 146.043C22.368 146.725 23.072 147.067 24.032 147.067ZM40 140.475C39.3173 140.475 38.7733 140.272 38.368 139.867C37.9627 139.461 37.76 138.928 37.76 138.267C37.76 137.584 37.9627 137.051 38.368 136.667C38.7733 136.261 39.3173 136.059 40 136.059C40.6827 136.059 41.2267 136.261 41.632 136.667C42.0373 137.051 42.24 137.584 42.24 138.267C42.24 138.928 42.0373 139.461 41.632 139.867C41.2267 140.272 40.6827 140.475 40 140.475ZM40 150.907C38.2293 150.907 36.8213 150.555 35.776 149.851C34.7307 149.125 33.9733 147.952 33.504 146.331C33.0347 144.709 32.8 142.555 32.8 139.867V137.947C32.8 135.237 33.0347 133.083 33.504 131.483C33.9733 129.861 34.7307 128.699 35.776 127.995C36.8213 127.269 38.2293 126.907 40 126.907C41.7493 126.907 43.1467 127.269 44.192 127.995C45.2587 128.699 46.0267 129.861 46.496 131.483C46.9653 133.083 47.2 135.237 47.2 137.947V139.867C47.2 142.555 46.9653 144.709 46.496 146.331C46.0267 147.952 45.2587 149.125 44.192 149.851C43.1467 150.555 41.7493 150.907 40 150.907ZM40 146.939C40.7253 146.939 41.2693 146.747 41.632 146.363C41.9947 145.979 42.24 145.264 42.368 144.219C42.5173 143.152 42.592 141.595 42.592 139.547V138.267C42.592 136.219 42.5173 134.672 42.368 133.627C42.24 132.56 41.9947 131.835 41.632 131.451C41.2693 131.067 40.7253 130.875 40 130.875C39.296 130.875 38.752 131.067 38.368 131.451C38.0053 131.835 37.7493 132.56 37.6 133.627C37.472 134.672 37.408 136.219 37.408 138.267V139.547C37.408 141.595 37.472 143.152 37.6 144.219C37.7493 145.264 38.0053 145.979 38.368 146.363C38.752 146.747 39.296 146.939 40 146.939ZM49.6 146.747C51.0507 145.189 52.2773 143.803 53.28 142.587C54.2827 141.349 55.0933 140.24 55.712 139.259C56.3307 138.256 56.7787 137.349 57.056 136.539C57.3333 135.728 57.472 134.96 57.472 134.235C57.472 133.104 57.2267 132.272 56.736 131.739C56.2453 131.205 55.4773 130.939 54.432 130.939C53.0667 130.939 51.456 131.333 49.6 132.123V127.963C51.2 127.259 53.152 126.907 55.456 126.907C57.7813 126.907 59.488 127.461 60.576 128.571C61.664 129.659 62.208 131.376 62.208 133.723C62.208 134.704 62.0693 135.707 61.792 136.731C61.536 137.733 61.1307 138.768 60.576 139.835C60.0213 140.901 59.328 142 58.496 143.131C57.6853 144.261 56.7147 145.424 55.584 146.619V146.747H62.4V150.587H49.6V146.747ZM104 140.475C103.317 140.475 102.773 140.272 102.368 139.867C101.963 139.461 101.76 138.928 101.76 138.267C101.76 137.584 101.963 137.051 102.368 136.667C102.773 136.261 103.317 136.059 104 136.059C104.683 136.059 105.227 136.261 105.632 136.667C106.037 137.051 106.24 137.584 106.24 138.267C106.24 138.928 106.037 139.461 105.632 139.867C105.227 140.272 104.683 140.475 104 140.475ZM104 150.907C102.229 150.907 100.821 150.555 99.776 149.851C98.7307 149.125 97.9733 147.952 97.504 146.331C97.0347 144.709 96.8 142.555 96.8 139.867V137.947C96.8 135.237 97.0347 133.083 97.504 131.483C97.9733 129.861 98.7307 128.699 99.776 127.995C100.821 127.269 102.229 126.907 104 126.907C105.749 126.907 107.147 127.269 108.192 127.995C109.259 128.699 110.027 129.861 110.496 131.483C110.965 133.083 111.2 135.237 111.2 137.947V139.867C111.2 142.555 110.965 144.709 110.496 146.331C110.027 147.952 109.259 149.125 108.192 149.851C107.147 150.555 105.749 150.907 104 150.907ZM104 146.939C104.725 146.939 105.269 146.747 105.632 146.363C105.995 145.979 106.24 145.264 106.368 144.219C106.517 143.152 106.592 141.595 106.592 139.547V138.267C106.592 136.219 106.517 134.672 106.368 133.627C106.24 132.56 105.995 131.835 105.632 131.451C105.269 131.067 104.725 130.875 104 130.875C103.296 130.875 102.752 131.067 102.368 131.451C102.005 131.835 101.749 132.56 101.6 133.627C101.472 134.672 101.408 136.219 101.408 138.267V139.547C101.408 141.595 101.472 143.152 101.6 144.219C101.749 145.264 102.005 145.979 102.368 146.363C102.752 146.747 103.296 146.939 104 146.939ZM120 126.907C121.813 126.907 123.253 127.216 124.32 127.835C125.387 128.453 126.155 129.467 126.624 130.875C127.115 132.283 127.36 134.16 127.36 136.507C127.36 139.792 126.933 142.491 126.08 144.603C125.227 146.715 123.904 148.283 122.112 149.307C120.341 150.331 118.037 150.864 115.2 150.907V146.939C116.501 146.939 117.653 146.736 118.656 146.331C119.68 145.904 120.501 145.328 121.12 144.603C121.739 143.856 122.091 143.003 122.176 142.043H122.048C121.451 142.363 120.885 142.587 120.352 142.715C119.819 142.843 119.243 142.907 118.624 142.907C116.576 142.907 115.061 142.288 114.08 141.051C113.12 139.792 112.64 137.851 112.64 135.227C112.64 132.261 113.205 130.139 114.336 128.859C115.488 127.557 117.376 126.907 120 126.907ZM119.968 130.747C119.008 130.747 118.304 131.099 117.856 131.803C117.408 132.485 117.184 133.552 117.184 135.003C117.184 136.453 117.408 137.531 117.856 138.235C118.304 138.917 119.008 139.259 119.968 139.259C120.928 139.259 121.632 138.917 122.08 138.235C122.528 137.531 122.752 136.453 122.752 135.003C122.752 133.552 122.528 132.485 122.08 131.803C121.632 131.099 120.928 130.747 119.968 130.747ZM136.128 150.587V132.507H136.064L129.216 138.235V132.987L136.128 127.227H140.736V150.587H136.128ZM152.128 150.587V132.507H152.064L145.216 138.235V132.987L152.128 127.227L156.736 127.227V150.587H152.128ZM193.6 146.747C195.051 145.189 196.277 143.803 197.28 142.587C198.283 141.349 199.093 140.24 199.712 139.259C200.331 138.256 200.779 137.349 201.056 136.539C201.333 135.728 201.472 134.96 201.472 134.235C201.472 133.104 201.227 132.272 200.736 131.739C200.245 131.205 199.477 130.939 198.432 130.939C197.067 130.939 195.456 131.333 193.6 132.123V127.963C195.2 127.259 197.152 126.907 199.456 126.907C201.781 126.907 203.488 127.461 204.576 128.571C205.664 129.659 206.208 131.376 206.208 133.723C206.208 134.704 206.069 135.707 205.792 136.731C205.536 137.733 205.131 138.768 204.576 139.835C204.021 140.901 203.328 142 202.496 143.131C201.685 144.261 200.715 145.424 199.584 146.619V146.747H206.4V150.587H193.6V146.747ZM216 140.475C215.317 140.475 214.773 140.272 214.368 139.867C213.963 139.461 213.76 138.928 213.76 138.267C213.76 137.584 213.963 137.051 214.368 136.667C214.773 136.261 215.317 136.059 216 136.059C216.683 136.059 217.227 136.261 217.632 136.667C218.037 137.051 218.24 137.584 218.24 138.267C218.24 138.928 218.037 139.461 217.632 139.867C217.227 140.272 216.683 140.475 216 140.475ZM216 150.907C214.229 150.907 212.821 150.555 211.776 149.851C210.731 149.125 209.973 147.952 209.504 146.331C209.035 144.709 208.8 142.555 208.8 139.867V137.947C208.8 135.237 209.035 133.083 209.504 131.483C209.973 129.861 210.731 128.699 211.776 127.995C212.821 127.269 214.229 126.907 216 126.907C217.749 126.907 219.147 127.269 220.192 127.995C221.259 128.699 222.027 129.861 222.496 131.483C222.965 133.083 223.2 135.237 223.2 137.947V139.867C223.2 142.555 222.965 144.709 222.496 146.331C222.027 147.952 221.259 149.125 220.192 149.851C219.147 150.555 217.749 150.907 216 150.907ZM216 146.939C216.725 146.939 217.269 146.747 217.632 146.363C217.995 145.979 218.24 145.264 218.368 144.219C218.517 143.152 218.592 141.595 218.592 139.547V138.267C218.592 136.219 218.517 134.672 218.368 133.627C218.24 132.56 217.995 131.835 217.632 131.451C217.269 131.067 216.725 130.875 216 130.875C215.296 130.875 214.752 131.067 214.368 131.451C214.005 131.835 213.749 132.56 213.6 133.627C213.472 134.672 213.408 136.219 213.408 138.267V139.547C213.408 141.595 213.472 143.152 213.6 144.219C213.749 145.264 214.005 145.979 214.368 146.363C214.752 146.747 215.296 146.939 216 146.939ZM232.128 150.587V132.507H232.064L225.216 138.235V132.987L232.128 127.227H236.736V150.587H232.128ZM248 126.907C249.813 126.907 251.253 127.216 252.32 127.835C253.387 128.453 254.155 129.467 254.624 130.875C255.115 132.283 255.36 134.16 255.36 136.507C255.36 139.792 254.933 142.491 254.08 144.603C253.227 146.715 251.904 148.283 250.112 149.307C248.341 150.331 246.037 150.864 243.2 150.907V146.939C244.501 146.939 245.653 146.736 246.656 146.331C247.68 145.904 248.501 145.328 249.12 144.603C249.739 143.856 250.091 143.003 250.176 142.043H250.048C249.451 142.363 248.885 142.587 248.352 142.715C247.819 142.843 247.243 142.907 246.624 142.907C244.576 142.907 243.061 142.288 242.08 141.051C241.12 139.792 240.64 137.851 240.64 135.227C240.64 132.261 241.205 130.139 242.336 128.859C243.488 127.557 245.376 126.907 248 126.907ZM247.968 130.747C247.008 130.747 246.304 131.099 245.856 131.803C245.408 132.485 245.184 133.552 245.184 135.003C245.184 136.453 245.408 137.531 245.856 138.235C246.304 138.917 247.008 139.259 247.968 139.259C248.928 139.259 249.632 138.917 250.08 138.235C250.528 137.531 250.752 136.453 250.752 135.003C250.752 133.552 250.528 132.485 250.08 131.803C249.632 131.099 248.928 130.747 247.968 130.747ZM289.6 146.747C291.051 145.189 292.277 143.803 293.28 142.587C294.283 141.349 295.093 140.24 295.712 139.259C296.331 138.256 296.779 137.349 297.056 136.539C297.333 135.728 297.472 134.96 297.472 134.235C297.472 133.104 297.227 132.272 296.736 131.739C296.245 131.205 295.477 130.939 294.432 130.939C293.067 130.939 291.456 131.333 289.6 132.123V127.963C291.2 127.259 293.152 126.907 295.456 126.907C297.781 126.907 299.488 127.461 300.576 128.571C301.664 129.659 302.208 131.376 302.208 133.723C302.208 134.704 302.069 135.707 301.792 136.731C301.536 137.733 301.131 138.768 300.576 139.835C300.021 140.901 299.328 142 298.496 143.131C297.685 144.261 296.715 145.424 295.584 146.619V146.747H302.4V150.587L289.6 150.587V146.747ZM312 140.475C311.317 140.475 310.773 140.272 310.368 139.867C309.963 139.461 309.76 138.928 309.76 138.267C309.76 137.584 309.963 137.051 310.368 136.667C310.773 136.261 311.317 136.059 312 136.059C312.683 136.059 313.227 136.261 313.632 136.667C314.037 137.051 314.24 137.584 314.24 138.267C314.24 138.928 314.037 139.461 313.632 139.867C313.227 140.272 312.683 140.475 312 140.475ZM312 150.907C310.229 150.907 308.821 150.555 307.776 149.851C306.731 149.125 305.973 147.952 305.504 146.331C305.035 144.709 304.8 142.555 304.8 139.867V137.947C304.8 135.237 305.035 133.083 305.504 131.483C305.973 129.861 306.731 128.699 307.776 127.995C308.821 127.269 310.229 126.907 312 126.907C313.749 126.907 315.147 127.269 316.192 127.995C317.259 128.699 318.027 129.861 318.496 131.483C318.965 133.083 319.2 135.237 319.2 137.947V139.867C319.2 142.555 318.965 144.709 318.496 146.331C318.027 147.952 317.259 149.125 316.192 149.851C315.147 150.555 313.749 150.907 312 150.907ZM312 146.939C312.725 146.939 313.269 146.747 313.632 146.363C313.995 145.979 314.24 145.264 314.368 144.219C314.517 143.152 314.592 141.595 314.592 139.547V138.267C314.592 136.219 314.517 134.672 314.368 133.627C314.24 132.56 313.995 131.835 313.632 131.451C313.269 131.067 312.725 130.875 312 130.875C311.296 130.875 310.752 131.067 310.368 131.451C310.005 131.835 309.749 132.56 309.6 133.627C309.472 134.672 309.408 136.219 309.408 138.267V139.547C309.408 141.595 309.472 143.152 309.6 144.219C309.749 145.264 310.005 145.979 310.368 146.363C310.752 146.747 311.296 146.939 312 146.939ZM321.6 146.747C323.051 145.189 324.277 143.803 325.28 142.587C326.283 141.349 327.093 140.24 327.712 139.259C328.331 138.256 328.779 137.349 329.056 136.539C329.333 135.728 329.472 134.96 329.472 134.235C329.472 133.104 329.227 132.272 328.736 131.739C328.245 131.205 327.477 130.939 326.432 130.939C325.067 130.939 323.456 131.333 321.6 132.123V127.963C323.2 127.259 325.152 126.907 327.456 126.907C329.781 126.907 331.488 127.461 332.576 128.571C333.664 129.659 334.208 131.376 334.208 133.723C334.208 134.704 334.069 135.707 333.792 136.731C333.536 137.733 333.131 138.768 332.576 139.835C332.021 140.901 331.328 142 330.496 143.131C329.685 144.261 328.715 145.424 327.584 146.619V146.747H334.4V150.587H321.6V146.747ZM344.128 150.587V132.507H344.064L337.216 138.235V132.987L344.128 127.227H348.736V150.587H344.128Z" fill="white"/>
<path d="M406.157 230.045C406.157 229.158 406.879 228.439 407.769 228.439H421.472C422.363 228.439 423.084 229.158 423.084 230.045V240.27C423.084 240.889 422.727 241.453 422.165 241.719L415.314 244.969C414.875 245.177 414.366 245.177 413.928 244.969L407.076 241.719C406.515 241.453 406.157 240.889 406.157 240.27V230.045Z" fill="white"/>
<path d="M431.951 230.045C431.951 229.158 432.673 228.439 433.563 228.439H437.594C438.484 228.439 439.206 229.158 439.206 230.045V233.256C439.206 234.143 438.484 234.861 437.594 234.861H433.563C432.673 234.861 431.951 234.143 431.951 233.256V230.045Z" fill="white"/>
<path d="M448.073 230.045C448.073 229.158 448.794 228.439 449.685 228.439H463.388C464.278 228.439 465 229.158 465 230.045V239.678C465 240.565 464.278 241.284 463.388 241.284H449.685C448.794 241.284 448.073 240.565 448.073 239.678V230.045Z" fill="white"/>
<path d="M406.157 246.903C406.157 246.016 406.879 245.297 407.769 245.297H421.472C422.363 245.297 423.084 246.016 423.084 246.903V256.536C423.084 257.423 422.363 258.142 421.472 258.142H407.769C406.879 258.142 406.157 257.423 406.157 256.536V246.903Z" fill="white"/>
<path d="M427.115 240.481C427.115 239.594 427.837 238.875 428.727 238.875H442.43C443.32 238.875 444.042 239.594 444.042 240.481V262.958C444.042 263.845 443.32 264.564 442.43 264.564H428.727C427.837 264.564 427.115 263.845 427.115 262.958V240.481Z" fill="white"/>
<path d="M448.073 246.903C448.073 246.016 448.794 245.297 449.685 245.297H463.388C464.278 245.297 465 246.016 465 246.903V256.536C465 257.423 464.278 258.142 463.388 258.142H449.685C448.794 258.142 448.073 257.423 448.073 256.536V246.903Z" fill="white"/>
<path d="M406.157 263.761C406.157 262.875 406.879 262.156 407.769 262.156H421.472C422.363 262.156 423.084 262.875 423.084 263.761V273.394C423.084 274.281 422.363 275 421.472 275H407.769C406.879 275 406.157 274.281 406.157 273.394V263.761Z" fill="white"/>
<path d="M431.951 270.183C431.951 269.297 432.673 268.578 433.563 268.578H437.594C438.484 268.578 439.206 269.297 439.206 270.183V273.394C439.206 274.281 438.484 275 437.594 275H433.563C432.673 275 431.951 274.281 431.951 273.394V270.183Z" fill="white"/>
<path d="M448.073 263.169C448.073 262.55 448.43 261.986 448.992 261.72L455.843 258.471C456.282 258.263 456.791 258.263 457.229 258.471L464.081 261.72C464.642 261.986 465 262.55 465 263.169V273.394C465 274.281 464.278 275 463.388 275H449.685C448.794 275 448.073 274.281 448.073 273.394V263.169Z" fill="white"/>
</svg>
