<svg width="101" height="33" viewBox="0 0 101 33" fill="none" xmlns="http://www.w3.org/2000/svg">
<path d="M43.5934 0.0102539L26.7134 12.4903C25.8957 9.40157 24.0645 6.67691 21.5134 4.75311C18.9061 2.78315 15.7299 1.71239 12.462 1.70168H0.427734V30.3417H12.5077C15.8019 30.4015 19.021 29.3553 21.6506 27.3703C24.1927 25.4296 25.9822 22.6666 26.7134 19.5531L43.5934 32.0103L60.4277 19.5531V30.3417H79.422V24.5245H66.8506V1.6674H59.9934V12.4674L43.9934 24.936L40.5649 22.0331L48.3363 16.216L56.542 9.9874L51.7877 6.25025L35.8563 18.296L32.4277 15.3931L48.4277 3.75883L43.5934 0.0102539ZM6.8963 7.49597H12.0734C13.1401 7.4937 14.1953 7.71564 15.1706 8.1474C16.1514 8.58474 17.0397 9.20538 17.7877 9.97597C18.5616 10.7757 19.1781 11.7139 19.6049 12.7417C20.4619 14.9155 20.4619 17.3336 19.6049 19.5074C19.2129 20.536 18.6314 21.4818 17.8906 22.296C17.163 23.1139 16.2764 23.7749 15.2849 24.2388C14.2537 24.717 13.1301 24.9628 11.9934 24.9588H6.8963V7.49597ZM100.999 24.5245V30.3417H82.0049V1.67883H88.9191V24.536H100.999V24.5245Z" fill="white"/>
</svg>
