<svg width="1440" height="4267" viewBox="0 0 1440 4267" fill="none" xmlns="http://www.w3.org/2000/svg">
<path d="M891.5 0.000196591C992 -1.50032 1193.86 18.7675 1070.66 174.503C916.648 369.171 1462.28 521.367 1374.27 369.172C1286.27 216.976 617.432 390.408 1158.66 648.787C1591.64 855.489 740.638 909.525 261.013 910.705C93.1495 918.375 -164.491 995.314 147.856 1241.71C538.29 1549.7 1244.71 1680.69 1201.68 1868.32C1158.66 2055.94 -385.357 2872 147.856 2872C1321 2872 252.144 3343.89 713 3504C853.545 3552.83 1447.95 3470.17 1417 3780C1359.34 4357.28 -59.8 4083.2 97 4400C293 4796 1417 4944 1447 5080" stroke="#2BB32A" stroke-width="1.5" stroke-linecap="square"/>
</svg>
