<svg width="1439" height="4267" viewBox="0 0 1439 4267" fill="none" xmlns="http://www.w3.org/2000/svg">
<path d="M890.884 0.073453C991.315 -1.42704 1193.04 18.8405 1069.92 174.573C916.014 369.239 1461.27 521.433 1373.32 369.24C1285.38 217.046 617.006 390.476 1157.86 648.851C1590.54 855.55 740.127 909.585 260.833 910.765C93.0856 918.435 -164.377 995.373 147.755 1241.76C537.919 1549.75 1243.85 1680.74 1200.85 1868.36C1157.86 2055.99 -385.09 2872.03 147.755 2872.03C1320.09 2872.03 251.971 3343.92 712.507 3504.02C852.955 3552.85 1446.95 3470.19 1416.02 3780.02C1358.4 4357.29 -59.7581 4083.21 96.9335 4400.01C292.798 4796 1416.02 4944 1446 5080" stroke="#2BB32A" stroke-width="1.5" stroke-linecap="square"/>
<path d="M513.549 530.889C513.851 529.972 515.147 529.972 515.449 530.889L520.157 545.204C520.256 545.506 520.493 545.743 520.795 545.842L535.111 550.55C536.027 550.852 536.027 552.149 535.111 552.45L520.795 557.158C520.493 557.258 520.256 557.494 520.157 557.796L515.449 572.112C515.147 573.028 513.851 573.028 513.549 572.112L508.841 557.796C508.742 557.494 508.505 557.258 508.203 557.158L493.887 552.45C492.971 552.149 492.971 550.852 493.887 550.55L508.203 545.842C508.505 545.743 508.742 545.506 508.841 545.204L513.549 530.889Z" fill="#2BB32A"/>
<path d="M1057.87 156.393C1058 155.437 1059.28 155.204 1059.74 156.052L1066.94 169.292C1067.09 169.571 1067.36 169.762 1067.68 169.805L1082.61 171.872C1083.56 172.004 1083.8 173.28 1082.95 173.741L1069.71 180.938C1069.43 181.09 1069.24 181.365 1069.19 181.68L1067.13 196.608C1067 197.564 1065.72 197.796 1065.26 196.948L1058.06 183.708C1057.91 183.429 1057.63 183.239 1057.32 183.195L1042.39 181.129C1041.44 180.997 1041.2 179.721 1042.05 179.26L1055.29 172.062C1055.57 171.91 1055.76 171.635 1055.8 171.321L1057.87 156.393Z" fill="#2BB32A"/>
<path d="M1156.27 810.592C1157.05 810.027 1158.1 810.788 1157.81 811.708L1154.06 823.419C1153.96 823.722 1154.01 824.052 1154.2 824.31L1161.4 834.28C1161.96 835.062 1161.2 836.112 1160.28 835.817L1148.57 832.067C1148.27 831.97 1147.94 832.023 1147.68 832.209L1137.71 839.409C1136.93 839.974 1135.88 839.212 1136.17 838.293L1139.92 826.581C1140.02 826.279 1139.97 825.948 1139.78 825.691L1132.58 815.721C1132.02 814.938 1132.78 813.889 1133.7 814.183L1145.41 817.933C1145.71 818.03 1146.04 817.977 1146.3 817.791L1156.27 810.592Z" fill="#2BB32A"/>
<path d="M844.043 1422.38C843.704 1421.47 844.714 1420.66 845.524 1421.19L853.181 1426.16C853.447 1426.33 853.78 1426.37 854.077 1426.26L862.622 1423.04C863.526 1422.7 864.338 1423.71 863.813 1424.52L858.842 1432.18C858.67 1432.45 858.633 1432.78 858.745 1433.08L861.957 1441.62C862.297 1442.53 861.286 1443.34 860.477 1442.81L852.82 1437.84C852.553 1437.67 852.221 1437.63 851.923 1437.75L843.378 1440.96C842.475 1441.3 841.662 1440.29 842.187 1439.48L847.158 1431.82C847.331 1431.55 847.367 1431.22 847.255 1430.92L844.043 1422.38Z" fill="#2BB32A"/>
<path d="M295.433 3009.98C296.204 3009.4 297.268 3010.15 296.991 3011.07L295.279 3016.78C295.187 3017.08 295.246 3017.41 295.437 3017.67L299.015 3022.43C299.594 3023.21 298.852 3024.27 297.928 3023.99L292.219 3022.28C291.915 3022.19 291.585 3022.25 291.331 3022.44L286.565 3026.02C285.793 3026.6 284.729 3025.85 285.006 3024.93L286.719 3019.22C286.81 3018.92 286.751 3018.59 286.561 3018.33L282.982 3013.57C282.403 3012.79 283.145 3011.73 284.069 3012.01L289.778 3013.72C290.083 3013.81 290.412 3013.75 290.666 3013.56L295.433 3009.98Z" fill="#2BB32A"/>
<path d="M431.422 1203.17C432.035 1202.42 433.244 1202.89 433.192 1203.85L432.871 1209.81C432.854 1210.12 432.989 1210.43 433.234 1210.63L437.833 1214.42C438.578 1215.04 438.107 1216.25 437.144 1216.19L431.192 1215.87C430.875 1215.86 430.568 1215.99 430.367 1216.24L426.576 1220.83C425.962 1221.58 424.754 1221.11 424.806 1220.14L425.126 1214.19C425.143 1213.88 425.009 1213.57 424.764 1213.37L420.164 1209.58C419.419 1208.96 419.89 1207.75 420.854 1207.81L426.805 1208.13C427.123 1208.14 427.429 1208.01 427.631 1207.76L431.422 1203.17Z" fill="#2BB32A"/>
<path d="M530.623 1902.42C530.549 1901.46 531.746 1900.96 532.377 1901.69L536.27 1906.21C536.478 1906.45 536.787 1906.58 537.104 1906.55L543.047 1906.1C544.009 1906.02 544.507 1907.22 543.776 1907.85L539.264 1911.74C539.023 1911.95 538.895 1912.26 538.92 1912.58L539.375 1918.52C539.448 1919.48 538.251 1919.98 537.62 1919.25L533.727 1914.74C533.519 1914.5 533.21 1914.37 532.893 1914.39L526.95 1914.85C525.988 1914.92 525.49 1913.72 526.221 1913.09L530.734 1909.2C530.974 1908.99 531.102 1908.68 531.077 1908.37L530.623 1902.42Z" fill="#2BB32A"/>
<path d="M144.499 2142.49C145.01 2141.63 146.331 2141.97 146.359 2142.97L146.798 2158.59C146.807 2158.91 146.965 2159.2 147.223 2159.39L159.094 2167.7C159.852 2168.24 159.544 2169.42 158.624 2169.52L144.207 2171.02C143.892 2171.06 143.612 2171.24 143.451 2171.51L135.479 2184.95C134.968 2185.81 133.647 2185.47 133.619 2184.47L133.18 2168.85C133.171 2168.53 133.013 2168.24 132.754 2168.05L120.884 2159.74C120.126 2159.2 120.434 2158.02 121.354 2157.92L135.771 2156.42C136.085 2156.38 136.366 2156.2 136.527 2155.93L144.499 2142.49Z" fill="#2BB32A"/>
<path d="M1211.18 2302.37C1211.22 2301.41 1212.47 2301.06 1213.01 2301.86L1222.02 2315.4C1222.2 2315.66 1222.49 2315.83 1222.81 2315.84L1239.05 2316.62C1240.01 2316.66 1240.36 2317.91 1239.55 2318.45L1226.02 2327.46C1225.76 2327.64 1225.59 2327.93 1225.58 2328.25L1224.8 2344.49C1224.75 2345.45 1223.5 2345.8 1222.97 2344.99L1213.95 2331.46C1213.78 2331.2 1213.49 2331.03 1213.17 2331.02L1196.93 2330.24C1195.97 2330.19 1195.62 2328.94 1196.42 2328.41L1209.96 2319.4C1210.22 2319.22 1210.38 2318.93 1210.4 2318.61L1211.18 2302.37Z" fill="#2BB32A"/>
<path d="M701.05 3258.89C701.352 3257.97 702.648 3257.97 702.95 3258.89L703.822 3261.54C703.921 3261.84 704.158 3262.08 704.46 3262.18L707.112 3263.05C708.028 3263.35 708.028 3264.65 707.112 3264.95L704.46 3265.82C704.158 3265.92 703.921 3266.16 703.822 3266.46L702.95 3269.11C702.648 3270.03 701.352 3270.03 701.05 3269.11L700.178 3266.46C700.079 3266.16 699.842 3265.92 699.54 3265.82L696.888 3264.95C695.972 3264.65 695.972 3263.35 696.888 3263.05L699.54 3262.18C699.842 3262.08 700.079 3261.84 700.178 3261.54L701.05 3258.89Z" fill="#2BB32A"/>
<path d="M808.914 2642.8C809.467 2642.01 810.709 2642.39 810.732 2643.35L810.8 2646.14C810.808 2646.46 810.966 2646.76 811.226 2646.94L813.513 2648.54C814.303 2649.09 813.928 2650.34 812.963 2650.36L810.172 2650.43C809.855 2650.44 809.56 2650.59 809.378 2650.85L807.776 2653.14C807.222 2653.93 805.981 2653.55 805.957 2652.59L805.889 2649.8C805.881 2649.48 805.723 2649.19 805.463 2649L803.177 2647.4C802.386 2646.85 802.761 2645.61 803.726 2645.58L806.517 2645.52C806.835 2645.51 807.129 2645.35 807.312 2645.09L808.914 2642.8Z" fill="#2BB32A"/>
<path d="M986.05 2003.89C986.352 2002.97 987.648 2002.97 987.95 2003.89L990.802 2012.56C990.901 2012.86 991.138 2013.1 991.44 2013.2L1000.11 2016.05C1001.03 2016.35 1001.03 2017.65 1000.11 2017.95L991.44 2020.8C991.138 2020.9 990.901 2021.14 990.802 2021.44L987.95 2030.11C987.648 2031.03 986.352 2031.03 986.05 2030.11L983.198 2021.44C983.099 2021.14 982.862 2020.9 982.56 2020.8L973.888 2017.95C972.972 2017.65 972.972 2016.35 973.888 2016.05L982.56 2013.2C982.862 2013.1 983.099 2012.86 983.198 2012.56L986.05 2003.89Z" fill="#2BB32A"/>
<path d="M1338.3 1830.31C1338.13 1829.36 1339.28 1828.75 1339.98 1829.41L1353.46 1842.27C1353.69 1842.49 1354.01 1842.59 1354.33 1842.53L1372.68 1839.31C1373.63 1839.15 1374.24 1840.29 1373.58 1840.99L1360.72 1854.47C1360.5 1854.7 1360.4 1855.02 1360.46 1855.34L1363.68 1873.69C1363.84 1874.64 1362.7 1875.25 1362 1874.59L1348.51 1861.73C1348.28 1861.51 1347.96 1861.41 1347.65 1861.47L1329.3 1864.69C1328.35 1864.85 1327.73 1863.71 1328.4 1863.01L1341.26 1849.53C1341.48 1849.3 1341.58 1848.98 1341.52 1848.66L1338.3 1830.31Z" fill="#2BB32A"/>
<path d="M200.049 3548.89C200.351 3547.97 201.647 3547.97 201.949 3548.89L207.771 3566.59C207.87 3566.89 208.107 3567.13 208.408 3567.23L226.111 3573.05C227.027 3573.35 227.027 3574.65 226.111 3574.95L208.408 3580.77C208.107 3580.87 207.87 3581.11 207.771 3581.41L201.949 3599.11C201.647 3600.03 200.351 3600.03 200.049 3599.11L194.227 3581.41C194.128 3581.11 193.891 3580.87 193.59 3580.77L175.887 3574.95C174.971 3574.65 174.971 3573.35 175.887 3573.05L193.59 3567.23C193.891 3567.13 194.128 3566.89 194.227 3566.59L200.049 3548.89Z" fill="#2BB32A"/>
<path d="M232.05 3898.89C232.351 3897.97 233.648 3897.97 233.949 3898.89L239.771 3916.59C239.871 3916.89 240.107 3917.13 240.409 3917.23L258.111 3923.05C259.028 3923.35 259.028 3924.65 258.111 3924.95L240.409 3930.77C240.107 3930.87 239.871 3931.11 239.771 3931.41L233.949 3949.11C233.648 3950.03 232.351 3950.03 232.05 3949.11L226.228 3931.41C226.128 3931.11 225.892 3930.87 225.59 3930.77L207.888 3924.95C206.971 3924.65 206.971 3923.35 207.888 3923.05L225.59 3917.23C225.892 3917.13 226.128 3916.89 226.228 3916.59L232.05 3898.89Z" fill="#2BB32A"/>
<path d="M886.05 4074.89C886.351 4073.97 887.648 4073.97 887.949 4074.89L893.771 4092.59C893.871 4092.89 894.107 4093.13 894.409 4093.23L912.111 4099.05C913.028 4099.35 913.028 4100.65 912.111 4100.95L894.409 4106.77C894.107 4106.87 893.871 4107.11 893.771 4107.41L887.949 4125.11C887.648 4126.03 886.351 4126.03 886.05 4125.11L880.228 4107.41C880.128 4107.11 879.892 4106.87 879.59 4106.77L861.888 4100.95C860.971 4100.65 860.971 4099.35 861.888 4099.05L879.59 4093.23C879.892 4093.13 880.128 4092.89 880.228 4092.59L886.05 4074.89Z" fill="#2BB32A"/>
<path d="M1299.05 3934.89C1299.35 3933.97 1300.65 3933.97 1300.95 3934.89L1301.82 3937.54C1301.92 3937.84 1302.16 3938.08 1302.46 3938.18L1305.11 3939.05C1306.03 3939.35 1306.03 3940.65 1305.11 3940.95L1302.46 3941.82C1302.16 3941.92 1301.92 3942.16 1301.82 3942.46L1300.95 3945.11C1300.65 3946.03 1299.35 3946.03 1299.05 3945.11L1298.18 3942.46C1298.08 3942.16 1297.84 3941.92 1297.54 3941.82L1294.89 3940.95C1293.97 3940.65 1293.97 3939.35 1294.89 3939.05L1297.54 3938.18C1297.84 3938.08 1298.08 3937.84 1298.18 3937.54L1299.05 3934.89Z" fill="#2BB32A"/>
<path d="M1236.6 3528.33C1236.57 3527.36 1237.79 3526.92 1238.39 3527.68L1240.11 3529.88C1240.3 3530.13 1240.61 3530.27 1240.92 3530.27L1243.71 3530.19C1244.68 3530.16 1245.12 3531.38 1244.36 3531.97L1242.16 3533.69C1241.91 3533.89 1241.77 3534.19 1241.78 3534.51L1241.85 3537.3C1241.88 3538.26 1240.66 3538.7 1240.07 3537.94L1238.35 3535.75C1238.15 3535.49 1237.85 3535.35 1237.53 3535.36L1234.74 3535.44C1233.78 3535.47 1233.34 3534.25 1234.1 3533.65L1236.3 3531.93C1236.55 3531.74 1236.69 3531.43 1236.68 3531.12L1236.6 3528.33Z" fill="#2BB32A"/>
<path d="M209.55 850.889C209.851 849.972 211.148 849.972 211.449 850.889L213.188 856.174C213.287 856.476 213.524 856.713 213.825 856.812L219.111 858.55C220.028 858.852 220.028 860.149 219.111 860.45L213.825 862.189C213.524 862.288 213.287 862.524 213.188 862.826L211.449 868.112C211.148 869.029 209.851 869.029 209.55 868.112L207.811 862.826C207.712 862.524 207.475 862.288 207.174 862.189L201.888 860.45C200.971 860.149 200.971 858.852 201.888 858.55L207.174 856.812C207.475 856.713 207.712 856.476 207.811 856.174L209.55 850.889Z" fill="#2BB32A"/>
</svg>
