<svg width="91" height="33" viewBox="0 0 91 33" fill="none" xmlns="http://www.w3.org/2000/svg">
<path fill-rule="evenodd" clip-rule="evenodd" d="M15.1357 9.38957C15.1343 8.2299 14.6728 7.11819 13.8525 6.29844C13.0322 5.47869 11.9202 5.01788 10.7606 5.01715H4.9923V13.8199H10.7606C11.3401 13.8211 11.9141 13.7069 12.449 13.4839C12.984 13.261 13.4692 12.9338 13.8765 12.5215C14.2837 12.1091 14.6048 11.6198 14.821 11.0821C15.0372 10.5444 15.1442 9.96905 15.1357 9.38957ZM10.7606 0.0102539C13.2503 0.0102539 15.6381 0.9993 17.3986 2.75981C19.1591 4.52033 20.1482 6.9081 20.1482 9.39784C20.1482 11.8876 19.1591 14.2754 17.3986 16.0359C15.6381 17.7964 13.2503 18.7854 10.7606 18.7854H4.9923V31.6765H0.00195312V0.0102539H10.7606ZM36.5316 18.4516C36.2085 17.2052 35.4792 16.1019 34.4591 15.316C33.439 14.5302 32.1862 14.1067 30.8985 14.1123C28.1399 14.1123 25.8778 15.8723 25.2571 18.4516H36.5316ZM30.9482 9.69026C37.4033 9.69026 41.9109 14.8296 41.9109 22.184V22.5813H25.2571C26.1426 25.3399 28.5344 27.1716 31.3509 27.1716C34.2861 27.1716 36.5013 25.3234 37.3151 24.5289L37.624 24.2309L40.6226 27.8889L40.3633 28.1427C37.8364 30.6254 34.6226 32.0047 31.3095 32.0047C24.9647 32.0047 20.013 26.9758 20.013 20.5537C20.0015 19.119 20.2765 17.6964 20.822 16.3694C21.3675 15.0424 22.1725 13.8377 23.1897 12.8258C24.2069 11.814 25.4159 11.0155 26.7458 10.477C28.0757 9.9386 29.4997 9.67111 30.9344 9.69026H30.9482ZM50.0654 3.38956V10.0103H56.8875V14.4875H50.0516V23.8668C50.0468 24.2373 50.1161 24.605 50.2554 24.9484C50.3948 25.2917 50.6013 25.6038 50.8629 25.8662C51.1245 26.1286 51.436 26.336 51.7789 26.4763C52.1218 26.6167 52.4894 26.6871 52.8599 26.6834H56.7909V31.6903H52.7771C48.0875 31.6903 45.053 28.6034 45.053 23.8254V3.41163L50.0654 3.38956ZM76.0682 20.8075C76.0567 19.5961 75.687 18.4151 75.0057 17.4134C74.3243 16.4116 73.3618 15.634 72.2392 15.1783C71.1167 14.7226 69.8845 14.6092 68.6977 14.8526C67.5109 15.0959 66.4226 15.685 65.57 16.5457C64.7174 17.4064 64.1385 18.5001 63.9063 19.6891C63.6742 20.8782 63.7991 22.1093 64.2653 23.2275C64.7315 24.3457 65.5182 25.3009 66.5263 25.9728C67.5344 26.6447 68.7187 27.0033 69.9302 27.0034C70.7394 26.9994 71.5398 26.8359 72.2857 26.5222C73.0316 26.2086 73.7083 25.7509 74.2772 25.1754C74.846 24.5999 75.2957 23.9179 75.6007 23.1684C75.9057 22.4189 76.0598 21.6166 76.0544 20.8075H76.0682ZM76.6199 12.1482V10.024H80.9895V31.6765H76.6364V29.5523C74.7461 31.1486 72.3492 32.0199 69.8751 32.0103C68.3947 32.0335 66.9246 31.7621 65.5502 31.2117C64.1758 30.6613 62.9246 29.843 61.8696 28.8043C60.8145 27.7657 59.9766 26.5276 59.4047 25.162C58.8328 23.7965 58.5382 22.3308 58.5382 20.8503C58.5382 19.3698 58.8328 17.9041 59.4047 16.5385C59.9766 15.1729 60.8145 13.9348 61.8696 12.8962C62.9246 11.8576 64.1758 11.0392 65.5502 10.4888C66.9246 9.93844 68.3947 9.66698 69.8751 9.69026C72.3333 9.70002 74.7106 10.5696 76.5951 12.1482H76.6199ZM85.5192 31.6765V1.67922H90.4847V31.6765H85.5192Z" fill="white"/>
</svg>
