<svg width="109" height="33" viewBox="0 0 109 33" fill="none" xmlns="http://www.w3.org/2000/svg">
<path d="M27.6474 32.0102L87.4368 26.828H22.4652L27.6474 32.0102Z" fill="white"/>
<path d="M101.299 5.45149C100.072 5.48013 98.8802 5.86254 97.8658 6.5527V5.84015H93.8496V23.4596H97.8658V13.16C97.8375 12.7087 97.902 12.2565 98.0552 11.8311C98.2085 11.4058 98.4472 11.0163 98.7568 10.6868C99.0663 10.3572 99.4401 10.0946 99.855 9.91504C100.27 9.73551 100.717 9.64288 101.169 9.64288C101.622 9.64288 102.069 9.73551 102.484 9.91504C102.899 10.0946 103.273 10.3572 103.582 10.6868C103.892 11.0163 104.13 11.4058 104.284 11.8311C104.437 12.2565 104.501 12.7087 104.473 13.16V23.5244H108.489V13.16C108.489 8.88469 105.574 5.45149 101.299 5.45149Z" fill="white"/>
<path d="M84.5864 5.3868C79.9224 5.3868 76.6188 9.46778 76.6188 14.65C76.6188 20.0913 80.7645 23.9131 84.975 23.9131C87.1127 23.9131 89.7686 23.2006 92.0358 19.9617L88.473 17.8888C85.7524 21.905 81.1532 19.8969 80.635 15.816H92.1653C93.2018 9.59733 89.1208 5.3868 84.5864 5.3868ZM80.8941 12.3828C81.7362 8.30178 87.307 8.04268 88.0843 12.3828H80.8941Z" fill="white"/>
<path d="M68.0682 17.6297C68.0325 18.4371 68.1598 19.2435 68.4425 20.0006C68.7252 20.7578 69.1576 21.4503 69.7138 22.0367C70.27 22.6231 70.9386 23.0915 71.6798 23.4139C72.421 23.7362 73.2195 23.906 74.0277 23.9131C75.3931 23.8652 76.7267 23.4874 77.9143 22.8118L75.3232 19.3139C74.9254 19.5977 74.4515 19.7557 73.9629 19.7673C73.696 19.7598 73.4335 19.6973 73.1918 19.5838C72.9501 19.4703 72.7344 19.3082 72.5581 19.1076C72.3818 18.907 72.2488 18.6722 72.1673 18.418C72.0858 18.1637 72.0575 17.8953 72.0843 17.6297V10.0507H75.5175V5.84018H72.0843V1.43532H68.0682V5.84018H65.9305V10.0507H68.0682V17.6297Z" fill="white"/>
<path d="M57.121 23.9131C58.3476 23.8844 59.5398 23.502 60.5542 22.8119V23.4597H64.5704V5.84021H60.5542V16.2046C60.5824 16.6558 60.518 17.1081 60.3647 17.5334C60.2115 17.9588 59.9728 18.3483 59.6632 18.6778C59.3537 19.0074 58.9799 19.27 58.5649 19.4495C58.15 19.6291 57.7027 19.7217 57.2505 19.7217C56.7984 19.7217 56.3511 19.6291 55.9361 19.4495C55.5212 19.27 55.1474 19.0074 54.8379 18.6778C54.5283 18.3483 54.2896 17.9588 54.1363 17.5334C53.9831 17.1081 53.9186 16.6558 53.9469 16.2046V5.84021H49.9307V16.2046C49.9307 20.4799 52.8457 23.9131 57.121 23.9131Z" fill="white"/>
<path d="M38.8538 16.2694L44.8134 23.5244H50.3842L42.4166 14.1317L49.283 5.84021H43.7121L38.8538 11.9941V0.0102539H34.7729V23.5244H38.8538V16.2694Z" fill="white"/>
<path d="M28.4892 22.6824V23.4597H32.5054V5.84025H28.4892V6.61757C27.3947 5.82777 26.0818 5.39767 24.7321 5.3868C20.1977 5.3868 16.6997 9.53255 16.6997 14.65C16.6997 19.7674 20.1329 23.9131 24.7321 23.9131C26.0834 23.9123 27.3994 23.4813 28.4892 22.6824ZM20.7807 14.7147C20.7807 11.9293 22.4001 9.72689 24.6674 9.72689C26.9346 9.72689 28.4892 11.9293 28.4892 14.7147C28.4892 17.5002 26.9346 19.7026 24.6674 19.7026C22.4001 19.7026 20.7807 17.5002 20.7807 14.7147Z" fill="white"/>
<path d="M15.4043 9.01427C15.4026 7.00474 14.6036 5.078 13.1826 3.65704C11.7617 2.23608 9.83491 1.43704 7.82538 1.43532H0.958984V23.4596H5.16951V16.658H8.08449L13.2019 23.4596H18.4489L12.2302 15.2329C13.2226 14.5302 14.0298 13.5973 14.5826 12.5142C15.1355 11.4312 15.4174 10.2302 15.4043 9.01427ZM7.89016 12.5122H5.16951V5.64585H7.89016C8.8007 5.64585 9.67395 6.00756 10.3178 6.65141C10.9616 7.29526 11.3234 8.16851 11.3234 9.07905C11.3234 9.98959 10.9616 10.8628 10.3178 11.5067C9.67395 12.1505 8.8007 12.5122 7.89016 12.5122Z" fill="white"/>
</svg>
