<svg width="237" height="32" viewBox="0 0 237 32" fill="none" xmlns="http://www.w3.org/2000/svg">
<path d="M18.6284 3.72225C18.6284 1.16225 16.1964 0.522247 14.2764 0.522247V0.906247C15.4284 0.906247 16.3244 1.29025 16.3244 2.18625C16.3244 2.69825 15.9404 3.46625 14.7884 3.46625C13.8924 3.46625 11.9724 2.95425 10.5644 2.44225C8.90036 1.80225 7.36436 1.29025 6.08436 1.29025C3.52436 1.29025 1.73236 3.21025 1.73236 5.38625C1.73236 7.30625 3.14036 7.94625 3.65236 8.20224L3.78036 7.94625C3.52436 7.69025 3.14036 7.43425 3.14036 6.66625C3.14036 6.15425 3.65236 5.25825 4.93236 5.25825C6.08436 5.25825 7.62036 5.77025 9.66836 6.41025C11.4604 6.92225 13.3804 7.30625 14.4044 7.43425V11.4023L12.4844 13.0663V13.1943L14.4044 14.8583V20.3623C13.3804 21.0023 12.2284 21.1303 11.2044 21.1303C9.28436 21.1303 7.62036 20.6183 6.21236 19.0823L11.4604 16.5223V7.69025L5.06036 10.5062C5.57236 8.84225 6.98036 7.69025 8.38836 6.92225L8.26036 6.53825C4.42036 7.56225 0.964355 11.1463 0.964355 15.4983C0.964355 20.6183 5.18836 24.4583 9.92436 24.4583C15.0444 24.4583 18.3724 20.3623 18.3724 16.1383H18.1164C17.3484 17.8023 16.1964 19.3383 14.7884 20.1063V14.8583L16.8364 13.1943V13.0663L14.7884 11.4023V7.43425C16.7084 7.43425 18.6284 6.15425 18.6284 3.72225ZM7.49236 17.8023L5.95636 18.5703C5.06036 17.4183 4.54836 15.8823 4.54836 13.7063C4.54836 12.8103 4.54836 11.7863 4.80436 11.0183L7.49236 9.86624V17.8023ZM21.0604 20.7463L19.3964 22.0263L19.6524 22.2823L20.4204 21.6423L23.2364 24.2023L27.0764 21.6423L26.9484 21.3863L25.9244 22.0263L24.6444 20.7463V12.0423L25.6684 11.2743L27.8444 13.0663V20.8743C27.8444 25.7383 26.8204 26.5063 24.6444 27.2743V27.6583C28.2284 27.7863 31.5564 26.6343 31.5564 20.3623V11.9143L32.7084 11.0183L32.4524 10.7623L31.4284 11.5303L28.2284 8.84224L24.6444 11.5303V1.03425H24.3884L19.9084 4.10625V4.36225C20.4204 4.61825 21.1884 4.87425 21.1884 6.28225L21.0604 20.7463ZM44.4844 19.3383L41.2844 21.7703L38.0844 19.2103V17.6743L44.1004 13.5783V13.4503L41.0284 8.84224L34.3724 12.4263V20.8743L33.0924 21.8983L33.3484 22.1543L34.5004 21.2583L38.8524 24.4583L44.6124 19.8503L44.4844 19.3383ZM38.0844 17.1623V10.8903L38.3404 10.7623L41.1564 15.2423L38.0844 17.1623ZM68.9324 2.57025C68.9324 2.18625 68.8044 1.80225 68.6764 1.41825H68.4204C68.0364 2.44225 67.5244 2.95425 66.2444 2.95425C65.0924 2.95425 64.3244 2.31425 63.8124 1.80225L60.1004 6.02625L60.3564 6.28225L61.6364 5.13025C62.4044 5.77025 63.0444 6.28225 64.8364 6.41025V17.0343L57.2844 4.10625C56.6444 3.08225 55.7484 1.67425 53.9564 1.67425C51.9084 1.67425 50.1164 3.46625 50.3724 6.28225H50.7564C50.8844 5.51425 51.2684 4.61825 52.1644 4.61825C52.8044 4.61825 53.4444 5.25825 53.8284 5.89825V10.1222C51.5244 10.1222 49.9884 11.1463 49.9884 13.0663C49.9884 14.0903 50.5004 15.6263 52.0364 16.0103V15.7543C51.7804 15.4983 51.6524 15.2423 51.6524 14.8583C51.6524 14.2183 52.1644 13.7063 53.0604 13.7063H53.7004V19.0823C51.0124 19.0823 48.8364 20.6183 48.8364 23.1783C48.8364 25.6103 50.8844 26.7623 53.1884 26.6343V26.3783C51.7804 26.2503 51.1404 25.6103 51.1404 24.7143C51.1404 23.5623 51.9084 23.0503 52.9324 23.0503C53.9564 23.0503 54.8524 23.6903 55.4924 24.4583L59.2044 20.3623L58.9484 20.1063L58.0524 21.1303C56.6444 19.8503 55.8764 19.4663 54.2124 19.2103V6.41025L64.4524 24.3303H65.2204V6.41025C67.1404 6.28225 68.9324 4.74625 68.9324 2.57025ZM78.2764 19.3383L75.0764 21.7703L71.8764 19.2103V17.6743L77.8924 13.5783V13.4503L74.8204 8.84224L68.1644 12.4263V20.8743L66.8844 21.8983L67.1404 22.1543L68.2924 21.2583L72.6444 24.4583L78.4044 19.8503L78.2764 19.3383ZM71.8764 17.1623V10.8903L72.1324 10.7623L74.9484 15.2423L71.8764 17.1623ZM99.1404 10.2502L98.2444 10.8903L95.8124 8.84224L92.9964 11.4023L94.1484 12.5543V22.1543L91.0764 20.2343V12.2983L92.1004 11.6583L89.1564 8.84224L86.3404 11.4023L87.4924 12.5543V21.7703L87.1084 22.0263L84.4204 20.1063V12.4263C84.4204 10.6342 83.5244 10.1222 82.5004 9.48224C81.6044 8.84224 81.0924 8.45824 81.0924 7.56225C81.0924 6.79425 81.8604 6.41025 82.2444 6.15425V5.89825C81.2204 5.89825 78.5324 6.92225 78.5324 9.35425C78.5324 10.6342 79.1724 11.1463 79.8124 11.7863C80.4524 12.4263 81.0924 12.9383 81.0924 14.0903V21.5143L79.6844 22.5383L79.9404 22.7943L81.2204 21.7703L84.1644 24.3303L87.3644 22.1543L90.9484 24.3303L97.7324 20.3623V11.7863L99.3964 10.5062L99.1404 10.2502ZM122.948 3.21025L121.668 4.36225L118.852 1.80225L114.628 4.87425V2.05825H114.244L114.372 22.7943C113.988 22.7943 112.836 22.5383 111.94 22.2823L111.684 5.00225C111.684 3.72225 110.788 1.93025 108.484 1.93025C106.18 1.93025 104.644 3.72225 104.644 5.51425H105.028C105.156 4.74625 105.54 4.10625 106.308 4.10625C107.076 4.10625 107.716 4.61825 107.716 6.28225V11.2743C105.412 11.4023 104.004 12.6823 104.004 14.3463C104.004 15.3703 104.516 16.9063 106.052 16.9063V16.6503C105.54 16.3943 105.412 16.0103 105.412 15.7543C105.412 14.9863 106.052 14.7303 107.076 14.7303H107.588V22.6663C105.668 23.3063 104.9 24.7143 104.9 26.2503C104.9 28.4263 106.564 29.9623 109.124 29.9623C110.916 29.9623 112.452 29.7063 113.988 29.3223C115.268 29.0663 116.932 28.6823 117.7 28.6823C118.724 28.6823 119.108 29.1943 119.108 29.8343C119.108 30.7303 118.724 31.1143 118.212 31.2423V31.4983C120.26 31.1143 121.54 29.8343 121.54 27.9143C121.54 25.9943 119.62 24.8423 117.572 24.8423C116.548 24.8423 114.372 25.2263 112.836 25.4823C111.044 25.8663 109.252 26.1223 108.74 26.1223C107.844 26.1223 106.82 25.7383 106.82 24.4583C106.82 23.4343 107.716 22.5383 109.892 22.5383C111.044 22.5383 112.452 22.6663 113.86 23.0503C115.396 23.4343 116.804 23.8183 118.084 23.8183C120.004 23.8183 121.668 23.1783 121.668 20.4903V4.74625L123.204 3.46625L122.948 3.21025ZM117.7 11.0183C117.316 11.4023 116.804 11.7863 116.164 11.7863C115.524 11.7863 114.884 11.4023 114.628 11.0183V5.38625L115.908 4.49025L117.7 6.15425V11.0183ZM117.7 14.8583C117.444 14.6023 116.804 14.2183 116.164 14.2183C115.524 14.2183 114.884 14.6023 114.628 14.8583V11.5303C114.884 11.7863 115.524 12.1703 116.164 12.1703C116.804 12.1703 117.444 11.7863 117.7 11.5303V14.8583ZM117.7 20.8743C117.7 21.8983 117.06 22.9223 115.652 22.9223H114.628V15.3703C114.884 15.1143 115.524 14.7303 116.164 14.7303C116.804 14.7303 117.316 15.1143 117.7 15.3703V20.8743ZM135.236 11.7863L131.14 8.84224L124.868 12.4263V20.7463L123.588 21.7703L123.716 22.0263L124.74 21.2583L128.836 24.3303L135.236 20.4903V11.7863ZM128.324 19.8503V10.6342L131.524 12.9383V22.0263L128.324 19.8503ZM147.396 9.09825H147.14C146.756 9.35425 146.372 9.61025 145.988 9.61025C145.476 9.61025 144.836 9.35424 144.58 8.97024H144.324L142.148 11.4023L139.972 8.97024L136.132 11.5303L136.26 11.7863L137.284 11.1463L138.564 12.5543V20.6183L136.9 21.8983L137.156 22.1543L137.924 21.5143L140.996 24.0743L144.964 21.3863L144.836 21.1303L143.684 21.7703L142.148 20.4903V11.5303C142.788 12.1703 143.556 12.8103 144.452 12.8103C146.244 12.9383 147.268 11.1463 147.396 9.09825ZM162.756 21.3863L158.404 24.3303L152.516 15.3703L156.74 8.84224H156.996C157.508 9.35424 158.276 9.86624 159.172 9.86624C160.068 9.86624 160.708 9.35424 161.092 8.84224H161.348C161.22 11.4023 159.428 12.9383 158.148 12.9383C156.868 12.9383 156.228 12.2983 155.46 11.9143L155.076 12.5543L161.476 22.0263L162.756 21.2583V21.3863ZM148.676 20.7463L147.012 22.0263L147.268 22.2823L148.036 21.6423L150.852 24.2023L154.692 21.6423L154.436 21.3863L153.412 22.0263L152.132 20.7463V1.03425H152.004L147.396 4.10625V4.36225C147.908 4.61825 148.676 4.74625 148.676 6.28225V20.7463ZM184.004 3.72225C184.004 1.16225 181.572 0.522247 179.652 0.522247V0.906247C180.804 0.906247 181.7 1.29025 181.7 2.18625C181.7 2.69825 181.316 3.46625 180.164 3.46625C179.268 3.46625 177.348 2.95425 175.94 2.44225C174.276 1.93025 172.74 1.41825 171.46 1.41825C168.9 1.41825 167.108 3.33825 167.108 5.51425C167.108 7.43425 168.516 8.07425 169.028 8.33025L169.156 8.07425C168.772 7.81825 168.388 7.56225 168.388 6.79425C168.388 6.28225 168.9 5.38625 170.18 5.38625C171.332 5.38625 172.868 5.89825 174.916 6.53825C176.708 7.05025 178.628 7.43425 179.652 7.56225V11.5303L177.732 13.1943V13.3223L179.652 14.9863V20.4903C178.628 21.1303 177.476 21.2583 176.452 21.2583C174.532 21.2583 172.868 20.7463 171.46 19.2103L176.708 16.6503V7.69025L170.308 10.5062C170.948 8.84225 172.356 7.69025 173.636 6.79425L173.508 6.53825C169.668 7.56225 166.212 11.0183 166.212 15.3703C166.212 20.4903 170.436 24.3303 175.172 24.3303C180.292 24.3303 183.62 20.2343 183.62 16.0103H183.364C182.596 17.6743 181.444 19.2103 180.036 19.9783V14.7303L182.084 13.0663V12.9383L180.164 11.2743V7.43425C182.084 7.43425 184.004 6.15425 184.004 3.72225ZM172.868 17.8023L171.332 18.5703C170.436 17.4183 169.924 15.8823 169.924 13.7063C169.924 12.8103 170.052 11.7863 170.308 11.0183L172.996 9.86624L172.868 17.8023ZM188.484 2.44225H188.356L185.796 4.61825V4.74625L187.972 7.17825H188.228L190.788 5.00225V4.87425L188.484 2.44225ZM192.324 21.3863L191.3 22.0263L190.02 20.7463V11.9143L191.3 11.0183L191.044 10.7623L190.148 11.5303L187.844 8.84224L184.132 11.4023L184.388 11.7863L185.284 11.1463L186.436 12.5543V20.8743L184.772 22.1543L184.9 22.4103L185.796 21.7703L188.612 24.3303L192.452 21.7703L192.324 21.3863ZM213.7 21.2583L212.804 21.8983L211.396 20.6183V11.9143L212.676 10.8903L212.42 10.6342L211.396 11.5303L208.452 8.84224L204.612 11.5303L201.668 8.84224L198.084 11.5303L195.78 8.84224L192.068 11.4023L192.196 11.7863L193.092 11.1463L194.372 12.5543V20.8743L193.348 21.8983L196.292 24.3303L199.108 21.7703L197.956 20.6183V11.9143L199.108 11.1463L201.028 12.9383V20.6183L200.004 21.6423L202.948 24.0743L205.764 21.5143L204.612 20.3623V11.9143L205.636 11.2743L207.684 13.0663V20.7463L206.788 21.6423L209.732 24.3303L213.7 21.6423V21.2583ZM224.836 19.3383L221.636 21.7703L218.436 19.2103V17.6743L224.452 13.5783V13.4503L221.38 8.84224L214.724 12.4263V21.1303L219.204 24.3303L224.964 19.7223L224.836 19.3383ZM218.436 17.1623V10.8903L218.692 10.7623L221.508 15.2423L218.436 17.1623ZM236.485 16.0103L234.053 14.0903C235.717 12.6823 236.356 10.7623 236.356 9.48224V8.71424H236.101C235.845 9.35424 235.332 9.99424 234.308 9.99424C233.284 9.99424 232.645 9.48224 232.005 8.71424L226.244 11.9143V16.5223L228.421 18.1863C226.244 20.1063 225.86 21.3863 225.86 22.4103C225.86 23.6903 226.5 24.5863 227.524 24.9703L227.652 24.7143C227.396 24.4583 227.14 24.3303 227.14 23.6903C227.14 23.3063 227.652 22.6663 228.676 22.6663C229.956 22.6663 230.724 23.5623 231.108 23.9463L236.612 20.6183V16.0103H236.485ZM235.076 12.1703C234.18 13.7063 232.26 15.2423 231.108 16.0103L229.7 14.8583V10.3782C230.212 11.6583 231.62 12.6823 233.028 12.6823C233.924 12.6823 234.436 12.5543 235.076 12.1703ZM232.9 22.4103C232.26 21.0023 230.725 19.9783 229.189 19.9783C228.805 19.9783 227.78 19.9783 226.756 20.6183C227.396 19.5943 229.061 17.8023 231.237 16.5223L232.773 17.8023L232.9 22.4103Z" fill="white"/>
</svg>
