<svg width="106" height="33" viewBox="0 0 106 33" fill="none" xmlns="http://www.w3.org/2000/svg">
<path d="M68.3376 7.40753C66.6418 7.39218 64.9798 7.8815 63.5628 8.81327C62.1459 9.74504 61.038 11.0772 60.3802 12.6402C59.7223 14.2033 59.5442 15.9267 59.8685 17.5912C60.1927 19.2558 61.0046 20.7864 62.201 21.9882C63.3975 23.1901 64.9243 24.009 66.5874 24.3409C68.2504 24.6727 69.9746 24.5024 71.5407 23.8517C73.1067 23.201 74.4439 22.0993 75.3821 20.6866C76.3203 19.2739 76.8172 17.6141 76.8096 15.9183C76.8121 14.8032 76.595 13.6985 76.1706 12.6673C75.7463 11.6361 75.1229 10.6986 74.3362 9.90828C73.5495 9.11799 72.6149 8.49038 71.5856 8.0613C70.5564 7.63222 69.4527 7.41007 68.3376 7.40753ZM68.4054 21.0112C67.7506 21.0196 67.1007 20.8972 66.4938 20.6511C65.8869 20.405 65.3353 20.0403 64.8713 19.5782C64.2914 19.0047 63.8619 18.297 63.6209 17.5177C63.38 16.7385 63.335 15.9119 63.49 15.1111C63.645 14.3104 63.9952 13.5602 64.5095 12.9272C65.0238 12.2942 65.6863 11.7979 66.4384 11.4822C67.1905 11.1665 68.0088 11.0413 68.8208 11.1176C69.6329 11.194 70.4136 11.4695 71.0936 11.9197C71.7737 12.37 72.3322 12.9811 72.7196 13.6988C73.1069 14.4166 73.3112 15.2188 73.3143 16.0345C73.2852 17.3369 72.7581 18.5788 71.8414 19.5045C70.9247 20.4302 69.6881 20.9694 68.386 21.0112H68.4054ZM87.1406 11.4354C86.5655 11.4429 85.9975 11.564 85.4694 11.7917C84.9412 12.0194 84.4632 12.3492 84.0628 12.7622C83.6625 13.1751 83.3476 13.6631 83.1364 14.1981C82.9252 14.733 82.8217 15.3045 82.832 15.8795V24.003H79.143L79.0946 7.88196H82.7836V10.409C83.3122 9.63678 84.0177 9.00194 84.8412 8.55734C85.6647 8.11274 86.5825 7.87123 87.5182 7.85292H88.593V11.4354H87.1406ZM50.3479 8.0272L53.1073 19.0844L56.012 7.99815H59.701L55.1406 24.1676H51.5582L48.6535 12.8974L45.8553 24.216H42.2631L37.422 8.10466H41.0141L44.248 19.1328L46.8332 8.04656L50.3479 8.0272ZM99.4081 15.1727C100.703 14.416 101.777 13.3329 102.523 12.0316C103.269 10.7302 103.66 9.25603 103.659 7.75609H99.9697C99.9852 9.05731 99.4844 10.3116 98.5771 11.2444C97.6697 12.1772 96.4297 12.7124 95.1285 12.7328H94.596L94.5573 0.0102539H90.8683L91.0135 23.9643H94.7025V16.3733H95.1285C95.3239 16.3519 95.5212 16.3905 95.6941 16.4838C95.8671 16.5772 96.0075 16.7211 96.0967 16.8962L101.296 23.9352H105.614L99.4081 15.1727Z" fill="white"/>
<path d="M28.9017 7.60118C24.8932 7.60118 21.853 10.2638 20.7104 14.4853C18.8846 11.6426 17.4546 8.56436 16.4599 5.33552H12.2481V16.5089C12.2481 17.572 11.8258 18.5916 11.0741 19.3433C10.3223 20.095 9.30275 20.5174 8.23964 20.5174C7.17653 20.5174 6.15695 20.095 5.40522 19.3433C4.65349 18.5916 4.23117 17.572 4.23117 16.5089V5.33552L0 5.41298L0.0484115 16.5864C0.0445884 17.6747 0.255643 18.753 0.669471 19.7596C1.0833 20.7661 1.69176 21.6811 2.45996 22.452C3.22816 23.2229 4.14098 23.8345 5.14608 24.2519C6.15119 24.6693 7.22879 24.8841 8.3171 24.8841C9.40503 24.869 10.4793 24.639 11.4781 24.2075C12.4769 23.776 13.3805 23.1513 14.1372 22.3695C14.8939 21.5876 15.4886 20.664 15.8872 19.6516C16.2858 18.6392 16.4804 17.558 16.4599 16.4702V14.5337C17.3455 16.2992 18.3788 17.9867 19.5486 19.5782L16.9924 32.0103L21.3011 31.9618L23.1601 22.9864C24.8951 24.0907 26.9128 24.6692 28.9694 24.6517C31.186 24.5677 33.2831 23.6255 34.8179 22.0242C36.3527 20.4229 37.2051 18.2877 37.195 16.0696C37.185 13.8515 36.3133 11.7242 34.764 10.1368C33.2147 8.54946 31.1092 7.62635 28.892 7.56245L28.9017 7.60118ZM28.9598 20.3431C27.205 20.297 25.5222 19.6355 24.2058 18.4744L24.6221 16.7897V16.6929C24.9319 14.9016 25.8614 11.8517 29.0275 11.8517C30.1447 11.8491 31.2176 12.2884 32.0121 13.0738C32.8065 13.8593 33.2582 14.927 33.2684 16.0441C33.2207 17.1706 32.7512 18.238 31.953 19.0344C31.1548 19.8308 30.0864 20.2979 28.9598 20.3431Z" fill="white"/>
</svg>
