<svg width="102" height="33" viewBox="0 0 102 33" fill="none" xmlns="http://www.w3.org/2000/svg">
<path fill-rule="evenodd" clip-rule="evenodd" d="M101.937 4.74169C102.048 5.17712 101.56 5.59541 101.306 5.91541C99.1771 8.58169 96.816 11.736 93.9794 13.7611C94.184 14.8217 94.0754 16.2297 93.7051 17.0068C94.448 17.9531 95.2365 18.8491 95.696 20.0743C95.0914 23.2742 93.688 25.7565 91.4445 27.3794C89.2548 28.9611 86.296 29.5851 82.9394 30.3554C76.4491 31.8468 65.7702 33.3177 60.9554 29.4525C55.7417 32.5017 45.2057 32.904 40.3291 29.272C36.8628 33.6457 23.1885 33.2617 25.2228 24.5828C22.6868 26.4971 18.9371 29.136 15.36 30.6262C11.2115 32.352 3.35546 32.1577 4.1406 26.2971C4.23546 25.5988 4.53146 25.2045 4.86517 24.5828C3.65146 22.472 2.8846 21.0068 2.15088 19.1714C1.44803 17.4114 0.376027 15.408 0.250312 12.9497C-0.0125446 7.71998 4.0766 4.40455 8.1246 2.84684C10.1897 2.05255 11.8674 0.901691 13.9131 0.324548C16.9703 -0.544023 19.5908 1.13255 19.7931 3.93141C23.3474 2.87998 27.6754 1.71998 32.3691 2.39884C36.1063 -0.49831 43.4045 1.29141 48.2011 2.66741C49.2857 2.97941 50.7451 3.78512 51.5485 3.75084C52.2285 3.72341 53.4571 2.80341 54.1703 2.48798C57.536 0.999977 61.936 -0.584023 66.7463 0.23312C67.6571 0.386263 68.4903 0.867405 69.4594 0.95312C70.1177 1.01369 70.9222 0.807977 71.6308 0.774834C82.8731 0.227405 92.232 3.23541 101.937 4.74169ZM70.456 4.38284C69.3074 4.51998 68.4925 5.77255 67.7417 6.18626C67.7965 6.18055 67.848 6.17141 67.8308 6.09484C67.968 5.47998 68.2308 4.98969 68.2834 4.29255C62.2628 2.17826 56.4034 5.26855 52.0914 7.62855C48.6423 9.51426 45.5657 11.7314 43.4057 13.9405C44.1863 12.6148 45.0148 11.3028 45.9394 10.064C46.8765 8.80569 47.92 7.66741 48.7451 6.54741C46.9417 6.07655 45.1337 5.57941 43.3143 5.19312C40.7291 4.64455 37.1337 3.73598 34.992 4.92341C34.3725 5.26626 33.8651 6.11084 33.2731 6.18626C32.7828 6.24912 31.976 5.89255 31.3725 5.82626C29.1623 5.58055 27.128 5.78512 25.1303 6.18626C23.2594 6.55998 19.304 7.22284 18.7965 8.98055C18.472 10.1097 19.1965 11.2034 19.0685 12.32C18.9451 13.4171 17.8868 14.8708 17.3497 15.7463C16.6925 16.8205 16.024 17.7714 14.9063 18.2708C14.2297 14.9108 14.9657 11.9223 15.5405 9.07312C15.8948 7.31655 16.6091 5.51884 15.9943 3.75084C14.2686 3.51198 12.816 4.87312 11.1075 5.55312C7.89831 6.83312 4.3246 7.99998 3.87088 11.6868C3.61488 13.7634 4.39774 15.0834 4.9566 16.5577C6.06092 19.5075 7.55205 22.2976 9.39088 24.8548C8.91088 25.7325 7.78288 25.9611 7.66974 27.1977C8.1806 27.9177 9.24345 28.0137 10.2937 28.0102C13.3291 28.0034 15.8183 26.4811 18.0731 25.2148C22.9828 22.4605 26.2811 18.2217 29.7451 14.2125C30.3531 13.5074 30.8537 12.6583 31.6457 12.2285C32.4228 15.7908 30.9108 17.696 29.8343 20.6148C29.4194 21.7394 28.1108 25.2594 28.7485 26.9268C29.448 28.7611 35.4034 28.8411 36.9817 27.6514C37.7771 27.0514 38.0937 25.6971 38.5211 24.8548C39.0663 23.7714 39.5383 22.8365 39.968 21.8788C39.992 25.8297 42.936 26.9897 46.1188 27.8308C52.8845 29.6137 59.7074 26.4285 63.3988 24.2251C62.9371 27.152 64.0777 27.4457 66.3851 27.9222C72.3508 29.1497 78.3588 27.7337 83.2114 26.568C87.6605 25.5005 91.2377 24.7462 91.8971 20.344C91.1851 19.7303 89.4057 19.8068 88.1885 19.9851C84.6 20.5085 81.1257 22.3165 76.3371 21.968C75.4628 21.9051 73.576 21.6011 73.44 21.0674C73.2297 20.2354 74.7245 19.6525 75.9771 19.4445C79.5657 18.8388 84.7542 19.4503 87.6445 18.3588C89.032 17.8377 90.7062 16.3314 90.5382 14.6628C90.4285 13.536 88.9531 12.9463 87.5531 12.8605C83.5942 12.6137 80.7645 14.9177 76.6102 14.1223C77.1291 13.4685 77.2228 12.3908 77.8742 11.8685C80.9131 11.8045 83.8651 12.4057 86.7405 12.2285C90.7382 11.9794 92.992 10.3005 94.8834 8.07998C95.0857 7.83998 95.5931 7.58283 95.4262 7.17941C88.4822 6.12569 79.0171 3.33598 70.456 4.38284ZM56.704 11.3245C56.2583 13.3474 55.3268 15.6628 54.8045 17.9074C57.68 17.9485 60.7131 17.3634 63.6697 17.1863C64.0697 16.6537 64.2663 15.9177 64.4845 15.2023C65.0777 16.0388 65.4948 17.6045 64.9371 18.8091C60.4468 18.7463 57.2194 22.4125 52.8148 22.416C50.8423 22.4182 49.1657 21.288 50.0994 19.0788C51.4183 15.9645 54.6891 13.7885 56.704 11.3245ZM67.1988 7.98741C68.0445 8.94855 69.896 8.90741 70.9977 9.61255C69.5108 9.99312 67.6388 9.99083 66.2925 10.512C66.6103 9.68455 66.8948 8.82626 67.1988 7.98741Z" fill="white"/>
</svg>
